M48
INCH,TZ
T01C.01576
;LEADER: 12 
;HEADER: 
;CODE  : ASCII 
;FILE  : PROIECT-CEF2-1-2.drl for  ... layers TOP and BOTTOM
;DESIGN: PROIECT-CEF2.brd
;T01 Holesize 1. = 15.760000 Tolerance = +0.000000/-0.000000 PLATED MILS Quantity = 21
%
G90
T01
X91000Y61000
X111000Y78000
X72000Y59400
X65000Y66400
X62000Y92000
X66000Y120000
X61000Y140000
X95000Y90200
X17900Y110000
X30000Y43000
X129000Y55000
X108000Y97000
X97000Y114000
X81000Y114000
X45000Y98000
X61000Y98000
X45000Y98000
X101000Y37000
X123000Y37000
X55000Y75000
X51000Y92000
M30
