G04 ================== begin FILE IDENTIFICATION RECORD ==================*
G04 Layout Name:  C:/USERS/CRIST/DESKTOP/SCHEMATICS/allegro/PROIECT-CEF2.brd*
G04 Film Name:    FAB*
G04 File Format:  Gerber RS274X*
G04 File Origin:  Cadence Allegro 17.2-S025*
G04 Origin Date:  Sun Dec 14 02:04:41 2025*
G04 *
G04 Layer:  MANUFACTURING/XSECTION_CHART*
G04 Layer:  MANUFACTURING/NCLEGEND-1-2*
G04 Layer:  MANUFACTURING/NCDRILL_LEGEND*
G04 Layer:  MANUFACTURING/NCDRILL_FIGURE*
G04 Layer:  DRAWING FORMAT/OUTLINE*
G04 Layer:  DRAWING FORMAT/DRAWING_ORIGIN*
G04 Layer:  BOARD GEOMETRY/DESIGN_OUTLINE*
G04 *
G04 Offset:    (0.00 0.00)*
G04 Mirror:    No*
G04 Mode:      Positive*
G04 Rotation:  0*
G04 FullContactRelief:  No*
G04 UndefLineWidth:     0.10*
G04 ================== end FILE IDENTIFICATION RECORD ====================*
%FSLAX25Y25*MOIN*%
%IR0*IPPOS*OFA0.00000B0.00000*MIA0B0*SFA1.00000B1.00000*%
%AMMACRO11*
1,1,.0001,.025,0.0*
20,1,.0001,.025,0.0,-.025,0.0,0.0*
1,1,.0001,-.025,0.0*
1,1,.0001,0.0,.025*
20,1,.0001,0.0,.025,0.0,-.025,0.0*
1,1,.0001,0.0,-.025*
%
%ADD11MACRO11*%
%AMMACRO10*
1,1,.0001,.025,0.0*
20,1,.0001,.025,0.0,.02462,-.004341,0.0*
1,1,.0001,.02462,-.004341*
20,1,.0001,.02462,-.004341,.023492,-.008551,0.0*
1,1,.0001,.023492,-.008551*
20,1,.0001,.023492,-.008551,.021651,-.0125,0.0*
1,1,.0001,.021651,-.0125*
20,1,.0001,.021651,-.0125,.019151,-.01607,0.0*
1,1,.0001,.019151,-.01607*
20,1,.0001,.019151,-.01607,.01607,-.019151,0.0*
1,1,.0001,.01607,-.019151*
20,1,.0001,.01607,-.019151,.0125,-.021651,0.0*
1,1,.0001,.0125,-.021651*
20,1,.0001,.0125,-.021651,.008551,-.023492,0.0*
1,1,.0001,.008551,-.023492*
20,1,.0001,.008551,-.023492,.004341,-.02462,0.0*
1,1,.0001,.004341,-.02462*
20,1,.0001,.004341,-.02462,0.0,-.025,0.0*
1,1,.0001,0.0,-.025*
20,1,.0001,0.0,-.025,-.004341,-.02462,0.0*
1,1,.0001,-.004341,-.02462*
20,1,.0001,-.004341,-.02462,-.008551,-.023492,0.0*
1,1,.0001,-.008551,-.023492*
20,1,.0001,-.008551,-.023492,-.0125,-.021651,0.0*
1,1,.0001,-.0125,-.021651*
20,1,.0001,-.0125,-.021651,-.01607,-.019151,0.0*
1,1,.0001,-.01607,-.019151*
20,1,.0001,-.01607,-.019151,-.019151,-.01607,0.0*
1,1,.0001,-.019151,-.01607*
20,1,.0001,-.019151,-.01607,-.021651,-.0125,0.0*
1,1,.0001,-.021651,-.0125*
20,1,.0001,-.021651,-.0125,-.023492,-.008551,0.0*
1,1,.0001,-.023492,-.008551*
20,1,.0001,-.023492,-.008551,-.02462,-.004341,0.0*
1,1,.0001,-.02462,-.004341*
20,1,.0001,-.02462,-.004341,-.025,0.0,0.0*
1,1,.0001,-.025,0.0*
20,1,.0001,-.025,0.0,-.02462,.004341,0.0*
1,1,.0001,-.02462,.004341*
20,1,.0001,-.02462,.004341,-.023492,.008551,0.0*
1,1,.0001,-.023492,.008551*
20,1,.0001,-.023492,.008551,-.021651,.0125,0.0*
1,1,.0001,-.021651,.0125*
20,1,.0001,-.021651,.0125,-.019151,.01607,0.0*
1,1,.0001,-.019151,.01607*
20,1,.0001,-.019151,.01607,-.01607,.019151,0.0*
1,1,.0001,-.01607,.019151*
20,1,.0001,-.01607,.019151,-.0125,.021651,0.0*
1,1,.0001,-.0125,.021651*
20,1,.0001,-.0125,.021651,-.008551,.023492,0.0*
1,1,.0001,-.008551,.023492*
20,1,.0001,-.008551,.023492,-.004341,.02462,0.0*
1,1,.0001,-.004341,.02462*
20,1,.0001,-.004341,.02462,0.0,.025,0.0*
1,1,.0001,0.0,.025*
20,1,.0001,0.0,.025,.004341,.02462,0.0*
1,1,.0001,.004341,.02462*
20,1,.0001,.004341,.02462,.008551,.023492,0.0*
1,1,.0001,.008551,.023492*
20,1,.0001,.008551,.023492,.0125,.021651,0.0*
1,1,.0001,.0125,.021651*
20,1,.0001,.0125,.021651,.01607,.019151,0.0*
1,1,.0001,.01607,.019151*
20,1,.0001,.01607,.019151,.019151,.01607,0.0*
1,1,.0001,.019151,.01607*
20,1,.0001,.019151,.01607,.021651,.0125,0.0*
1,1,.0001,.021651,.0125*
20,1,.0001,.021651,.0125,.023492,.008551,0.0*
1,1,.0001,.023492,.008551*
20,1,.0001,.023492,.008551,.02462,.004341,0.0*
1,1,.0001,.02462,.004341*
20,1,.0001,.02462,.004341,.025,0.0,0.0*
1,1,.0001,.025,0.0*
1,1,.0001,.0125,0.0*
20,1,.0001,.0125,0.0,-.0125,0.0,0.0*
1,1,.0001,-.0125,0.0*
1,1,.0001,0.0,.0125*
20,1,.0001,0.0,.0125,0.0,-.0125,0.0*
1,1,.0001,0.0,-.0125*
%
%ADD10MACRO10*%
%ADD12C,.0001*%
%ADD13C,.007*%
G75*
%LPD*%
G75*
G36*
G01X231150Y158399D02*
Y156132D01*
X233650D01*
Y-40901D01*
X231150D01*
Y-43168D01*
X246150D01*
Y-40901D01*
X243650D01*
Y156132D01*
X246150D01*
Y158399D01*
X231150D01*
G37*
G36*
G01X211150Y-43167D02*
Y-40900D01*
X271150D01*
Y-43167D01*
X211150D01*
G37*
G36*
G01Y156132D02*
Y158399D01*
X271150D01*
Y156132D01*
X211150D01*
G37*
G54D10*
X-115050Y207500D03*
X17900Y110000D03*
X30000Y43000D03*
X51000Y92000D03*
X45000Y98000D03*
X72000Y59400D03*
X55000Y75000D03*
X62000Y92000D03*
X65000Y66400D03*
X61000Y98000D03*
X81000Y114000D03*
X66000Y120000D03*
X61000Y140000D03*
X101000Y37000D03*
X91000Y61000D03*
X95000Y90200D03*
X111000Y78000D03*
X97000Y114000D03*
X108000Y97000D03*
X123000Y37000D03*
X129000Y55000D03*
G54D11*
X0Y0D03*
G54D12*
G01X-160000Y195000D02*
Y295000D01*
X336000D01*
Y195000D01*
X-160000D01*
G01X-148995Y226250D02*
Y238750D01*
X-143105D01*
G01X-145275Y232708D02*
X-148995D01*
G01X-135510Y238750D02*
X-131790D01*
G01X-133650D02*
Y226250D01*
G01X-135510D02*
X-131790D01*
G01X-120320Y232500D02*
X-117220D01*
Y228750D01*
X-118150Y227500D01*
X-119235Y226667D01*
X-120785Y226250D01*
X-122335Y226667D01*
X-123420Y227500D01*
X-124350Y228750D01*
X-124970Y230208D01*
X-125280Y231875D01*
Y233333D01*
X-124970Y234583D01*
X-124350Y236042D01*
X-123420Y237292D01*
X-122490Y238125D01*
X-121250Y238750D01*
X-120165D01*
X-118925Y238333D01*
X-117995Y237500D01*
G01X-112260Y238750D02*
Y229792D01*
X-111640Y227916D01*
X-110400Y226667D01*
X-108850Y226250D01*
X-107300Y226667D01*
X-106060Y227916D01*
X-105440Y229792D01*
Y238750D01*
G01X-99550Y226250D02*
Y238750D01*
X-95675D01*
X-94435Y238125D01*
X-93660Y237292D01*
X-93350Y235625D01*
X-93660Y233958D01*
X-94590Y232917D01*
X-95675Y232292D01*
X-99550D01*
G01X-95675D02*
X-93350Y226250D01*
G01X-80950D02*
X-87150D01*
Y238750D01*
X-80950D01*
G01X-83430Y232708D02*
X-87150D01*
G01X-160000Y220000D02*
X336000D01*
G01X-160000Y245000D02*
X336000D01*
G01X-160000Y270000D02*
X336000D01*
G01X-70100Y245000D02*
Y195000D01*
G01X-70410Y276250D02*
Y288750D01*
X-67310D01*
X-66070Y288125D01*
X-65140Y287292D01*
X-64365Y286042D01*
X-63745Y284583D01*
X-63590Y282500D01*
X-63745Y280417D01*
X-64365Y278958D01*
X-65140Y277708D01*
X-66070Y276875D01*
X-67310Y276250D01*
X-70410D01*
G01X-57700D02*
Y288750D01*
X-53825D01*
X-52585Y288125D01*
X-51810Y287292D01*
X-51500Y285625D01*
X-51810Y283958D01*
X-52740Y282917D01*
X-53825Y282292D01*
X-57700D01*
G01X-53825D02*
X-51500Y276250D01*
G01X-44060Y288750D02*
X-40340D01*
G01X-42200D02*
Y276250D01*
G01X-44060D02*
X-40340D01*
G01X-32900Y288750D02*
Y276250D01*
X-26700D01*
G01X-20500Y288750D02*
Y276250D01*
X-14300D01*
G01X10810Y287708D02*
X9880Y288333D01*
X8795Y288750D01*
X7555D01*
X6160Y288125D01*
X5075Y287083D01*
X4300Y285833D01*
X3680Y283750D01*
X3525Y281875D01*
X3835Y280000D01*
X4300Y278750D01*
X5230Y277500D01*
X6315Y276667D01*
X7400Y276250D01*
X8485D01*
X9570Y276667D01*
X10500Y277291D01*
X11275Y278125D01*
G01X16545Y276250D02*
Y288750D01*
G01X23055D02*
Y276250D01*
G01Y282500D02*
X16545D01*
G01X28325Y276250D02*
X32200Y288750D01*
X36075Y276250D01*
G01X34680Y280625D02*
X29720D01*
G01X41500Y276250D02*
Y288750D01*
X45375D01*
X46615Y288125D01*
X47390Y287292D01*
X47700Y285625D01*
X47390Y283958D01*
X46460Y282917D01*
X45375Y282292D01*
X41500D01*
G01X45375D02*
X47700Y276250D01*
G01X57000Y288750D02*
Y276250D01*
G01X53435Y288750D02*
X60565D01*
G01X69400Y275833D02*
X69090Y276042D01*
Y276458D01*
X69400Y276667D01*
X69710Y276458D01*
Y276042D01*
X69400Y275833D01*
G01Y281458D02*
X69090Y281667D01*
Y282083D01*
X69400Y282292D01*
X69710Y282083D01*
Y281667D01*
X69400Y281458D01*
G01X94200Y288750D02*
Y276250D01*
G01X90635Y288750D02*
X97765D01*
G01X106600Y276250D02*
X105360Y276458D01*
X104275Y277291D01*
X103345Y278542D01*
X102725Y280000D01*
X102415Y281667D01*
Y283333D01*
X102725Y285000D01*
X103345Y286458D01*
X104275Y287708D01*
X105360Y288542D01*
X106600Y288750D01*
X107840Y288542D01*
X108925Y287708D01*
X109855Y286458D01*
X110475Y285000D01*
X110785Y283333D01*
Y281667D01*
X110475Y280000D01*
X109855Y278542D01*
X108925Y277291D01*
X107840Y276458D01*
X106600Y276250D01*
G01X115900D02*
Y288750D01*
X119620D01*
X120860Y288125D01*
X121790Y286667D01*
X122100Y285000D01*
X121790Y283333D01*
X121015Y282083D01*
X119620Y281458D01*
X115900D01*
G01X143800Y288750D02*
Y276250D01*
G01X141630Y284583D02*
X145970D01*
G01X156200Y276250D02*
X155270Y276458D01*
X154340Y277291D01*
X153720Y278750D01*
X153410Y280417D01*
X153720Y282083D01*
X154340Y283542D01*
X155270Y284375D01*
X156200Y284583D01*
X157130Y284375D01*
X158060Y283542D01*
X158680Y282083D01*
X158835Y280417D01*
X158680Y278750D01*
X158060Y277291D01*
X157130Y276458D01*
X156200Y276250D01*
G01X182240Y282917D02*
X182860Y283542D01*
X183325Y284583D01*
X183635Y286042D01*
X183325Y287292D01*
X182705Y288125D01*
X181620Y288750D01*
X177435D01*
Y276250D01*
X182550D01*
X183635Y277083D01*
X184255Y278333D01*
X184565Y279792D01*
X184255Y281250D01*
X183325Y282500D01*
X182240Y282917D01*
X177435D01*
G01X193400Y276250D02*
X192160Y276458D01*
X191075Y277291D01*
X190145Y278542D01*
X189525Y280000D01*
X189215Y281667D01*
Y283333D01*
X189525Y285000D01*
X190145Y286458D01*
X191075Y287708D01*
X192160Y288542D01*
X193400Y288750D01*
X194640Y288542D01*
X195725Y287708D01*
X196655Y286458D01*
X197275Y285000D01*
X197585Y283333D01*
Y281667D01*
X197275Y280000D01*
X196655Y278542D01*
X195725Y277291D01*
X194640Y276458D01*
X193400Y276250D01*
G01X205800Y288750D02*
Y276250D01*
G01X202235Y288750D02*
X209365D01*
G01X218200D02*
Y276250D01*
G01X214635Y288750D02*
X221765D01*
G01X230600Y276250D02*
X229360Y276458D01*
X228275Y277291D01*
X227345Y278542D01*
X226725Y280000D01*
X226415Y281667D01*
Y283333D01*
X226725Y285000D01*
X227345Y286458D01*
X228275Y287708D01*
X229360Y288542D01*
X230600Y288750D01*
X231840Y288542D01*
X232925Y287708D01*
X233855Y286458D01*
X234475Y285000D01*
X234785Y283333D01*
Y281667D01*
X234475Y280000D01*
X233855Y278542D01*
X232925Y277291D01*
X231840Y276458D01*
X230600Y276250D01*
G01X238970D02*
Y288750D01*
X243000Y278333D01*
X247030Y288750D01*
Y276250D01*
G01X-46695Y226250D02*
Y238750D01*
X-40805D01*
G01X-42975Y232708D02*
X-46695D01*
G01X-33210Y238750D02*
X-29490D01*
G01X-31350D02*
Y226250D01*
G01X-33210D02*
X-29490D01*
G01X-22515D02*
Y238750D01*
X-15385Y226250D01*
Y238750D01*
G01X-8410D02*
X-4690D01*
G01X-6550D02*
Y226250D01*
G01X-8410D02*
X-4690D01*
G01X2595Y227916D02*
X3835Y226875D01*
X5230Y226250D01*
X6470D01*
X7710Y226875D01*
X8640Y227916D01*
X9105Y229375D01*
X8795Y230833D01*
X8020Y232083D01*
X6625Y232917D01*
X4765Y233333D01*
X3680Y234167D01*
X3215Y235625D01*
X3525Y237083D01*
X4300Y238125D01*
X5385Y238750D01*
X6470D01*
X7555Y238333D01*
X8485Y237292D01*
G01X14995Y226250D02*
Y238750D01*
G01X21505D02*
Y226250D01*
G01Y232500D02*
X14995D01*
G01X33750Y226250D02*
X27550D01*
Y238750D01*
X33750D01*
G01X31270Y232708D02*
X27550D01*
G01X39640Y226250D02*
Y238750D01*
X42740D01*
X43980Y238125D01*
X44910Y237292D01*
X45685Y236042D01*
X46305Y234583D01*
X46460Y232500D01*
X46305Y230417D01*
X45685Y228958D01*
X44910Y227708D01*
X43980Y226875D01*
X42740Y226250D01*
X39640D01*
G01X50800Y222083D02*
X60100D01*
G01X64595Y227916D02*
X65835Y226875D01*
X67230Y226250D01*
X68470D01*
X69710Y226875D01*
X70640Y227916D01*
X71105Y229375D01*
X70795Y230833D01*
X70020Y232083D01*
X68625Y232917D01*
X66765Y233333D01*
X65680Y234167D01*
X65215Y235625D01*
X65525Y237083D01*
X66300Y238125D01*
X67385Y238750D01*
X68470D01*
X69555Y238333D01*
X70485Y237292D01*
G01X78390Y238750D02*
X82110D01*
G01X80250D02*
Y226250D01*
G01X78390D02*
X82110D01*
G01X89705Y238750D02*
X95595D01*
X89705Y226250D01*
X95595D01*
G01X108150D02*
X101950D01*
Y238750D01*
X108150D01*
G01X105670Y232708D02*
X101950D01*
G01X-39875Y251250D02*
X-36000Y263750D01*
X-32125Y251250D01*
G01X-33520Y255625D02*
X-38480D01*
G01X-26700Y263750D02*
Y251250D01*
X-20500D01*
G01X-14300Y263750D02*
Y251250D01*
X-8100D01*
G01X10190Y263750D02*
Y254792D01*
X10810Y252916D01*
X12050Y251667D01*
X13600Y251250D01*
X15150Y251667D01*
X16390Y252916D01*
X17010Y254792D01*
Y263750D01*
G01X22435Y251250D02*
Y263750D01*
X29565Y251250D01*
Y263750D01*
G01X36540D02*
X40260D01*
G01X38400D02*
Y251250D01*
G01X36540D02*
X40260D01*
G01X50800Y263750D02*
Y251250D01*
G01X47235Y263750D02*
X54365D01*
G01X59945Y252916D02*
X61185Y251875D01*
X62580Y251250D01*
X63820D01*
X65060Y251875D01*
X65990Y252916D01*
X66455Y254375D01*
X66145Y255833D01*
X65370Y257083D01*
X63975Y257917D01*
X62115Y258333D01*
X61030Y259167D01*
X60565Y260625D01*
X60875Y262083D01*
X61650Y263125D01*
X62735Y263750D01*
X63820D01*
X64905Y263333D01*
X65835Y262292D01*
G01X84125Y251250D02*
X88000Y263750D01*
X91875Y251250D01*
G01X90480Y255625D02*
X85520D01*
G01X97300Y251250D02*
Y263750D01*
X101175D01*
X102415Y263125D01*
X103190Y262292D01*
X103500Y260625D01*
X103190Y258958D01*
X102260Y257917D01*
X101175Y257292D01*
X97300D01*
G01X101175D02*
X103500Y251250D01*
G01X115900D02*
X109700D01*
Y263750D01*
X115900D01*
G01X113420Y257708D02*
X109700D01*
G01X135740Y263750D02*
X139460D01*
G01X137600D02*
Y251250D01*
G01X135740D02*
X139460D01*
G01X146435D02*
Y263750D01*
X153565Y251250D01*
Y263750D01*
G01X170770Y251250D02*
Y263750D01*
X174800Y253333D01*
X178830Y263750D01*
Y251250D01*
G01X185340Y263750D02*
X189060D01*
G01X187200D02*
Y251250D01*
G01X185340D02*
X189060D01*
G01X196500Y263750D02*
Y251250D01*
X202700D01*
G01X208745Y252916D02*
X209985Y251875D01*
X211380Y251250D01*
X212620D01*
X213860Y251875D01*
X214790Y252916D01*
X215255Y254375D01*
X214945Y255833D01*
X214170Y257083D01*
X212775Y257917D01*
X210915Y258333D01*
X209830Y259167D01*
X209365Y260625D01*
X209675Y262083D01*
X210450Y263125D01*
X211535Y263750D01*
X212620D01*
X213705Y263333D01*
X214635Y262292D01*
G01X0Y0D02*
Y157480D01*
X157480D01*
Y0D01*
X0D01*
G01X5850Y201250D02*
Y213750D01*
X3990Y211250D01*
G01Y201250D02*
X7710D01*
G01X14840Y203125D02*
X15770Y202083D01*
X16855Y201458D01*
X18250Y201250D01*
X19645Y201667D01*
X20730Y202500D01*
X21505Y203958D01*
X21660Y205625D01*
X21350Y207292D01*
X20575Y208333D01*
X19490Y209167D01*
X18405Y209375D01*
X17320Y209167D01*
X15925Y208333D01*
X16390Y213750D01*
X20575D01*
G01X30650Y200833D02*
X30340Y201042D01*
Y201458D01*
X30650Y201667D01*
X30960Y201458D01*
Y201042D01*
X30650Y200833D01*
G01X42740Y201250D02*
X43050Y203958D01*
X43515Y206250D01*
X44135Y208333D01*
X44910Y210625D01*
X46150Y213750D01*
X39950D01*
G01X52505Y206458D02*
X53590Y207917D01*
X54520Y208750D01*
X55760Y209167D01*
X56845Y208750D01*
X57620Y207917D01*
X58240Y206667D01*
X58395Y205208D01*
X58240Y203958D01*
X57620Y202708D01*
X56690Y201667D01*
X55605Y201250D01*
X54365Y201667D01*
X53280Y202916D01*
X52660Y204792D01*
X52505Y206875D01*
X52815Y209583D01*
X53280Y211042D01*
X54055Y212500D01*
X55140Y213542D01*
X56225Y213750D01*
X57310Y213333D01*
X58085Y212292D01*
G01X131400Y245000D02*
Y195000D01*
G01X160850Y201250D02*
Y213750D01*
X164570D01*
X165810Y213125D01*
X166740Y211667D01*
X167050Y210000D01*
X166740Y208333D01*
X165965Y207083D01*
X164570Y206458D01*
X160850D01*
G01X173250Y213750D02*
Y201250D01*
X179450D01*
G01X184875D02*
X188750Y213750D01*
X192625Y201250D01*
G01X191230Y205625D02*
X186270D01*
G01X201150Y213750D02*
Y201250D01*
G01X197585Y213750D02*
X204715D01*
G01X216650Y201250D02*
X210450D01*
Y213750D01*
X216650D01*
G01X214170Y207708D02*
X210450D01*
G01X222540Y201250D02*
Y213750D01*
X225640D01*
X226880Y213125D01*
X227810Y212292D01*
X228585Y211042D01*
X229205Y209583D01*
X229360Y207500D01*
X229205Y205417D01*
X228585Y203958D01*
X227810Y202708D01*
X226880Y201875D01*
X225640Y201250D01*
X222540D01*
G01X160850Y226250D02*
Y238750D01*
X164570D01*
X165810Y238125D01*
X166740Y236667D01*
X167050Y235000D01*
X166740Y233333D01*
X165965Y232083D01*
X164570Y231458D01*
X160850D01*
G01X173250Y238750D02*
Y226250D01*
X179450D01*
G01X184875D02*
X188750Y238750D01*
X192625Y226250D01*
G01X191230Y230625D02*
X186270D01*
G01X201150Y238750D02*
Y226250D01*
G01X197585Y238750D02*
X204715D01*
G01X216650Y226250D02*
X210450D01*
Y238750D01*
X216650D01*
G01X214170Y232708D02*
X210450D01*
G01X222540Y226250D02*
Y238750D01*
X225640D01*
X226880Y238125D01*
X227810Y237292D01*
X228585Y236042D01*
X229205Y234583D01*
X229360Y232500D01*
X229205Y230417D01*
X228585Y228958D01*
X227810Y227708D01*
X226880Y226875D01*
X225640Y226250D01*
X222540D01*
G01X211150Y-40900D02*
Y156132D01*
X271150D01*
Y-40900D01*
X211150D01*
G01X258500Y245000D02*
Y195000D01*
G01X288105Y211667D02*
X289035Y212916D01*
X290120Y213542D01*
X291360Y213750D01*
X292910Y213333D01*
X293995Y212292D01*
X294305Y211042D01*
X294150Y209791D01*
X293530Y208750D01*
X290430Y206667D01*
X289035Y205208D01*
X288105Y203125D01*
X287795Y201250D01*
X294305D01*
G01X303450D02*
Y213750D01*
X301590Y211250D01*
G01Y201250D02*
X305310D01*
G01X284850Y226250D02*
X283610Y226458D01*
X282525Y227291D01*
X281595Y228542D01*
X280975Y230000D01*
X280665Y231667D01*
Y233333D01*
X280975Y235000D01*
X281595Y236458D01*
X282525Y237708D01*
X283610Y238542D01*
X284850Y238750D01*
X286090Y238542D01*
X287175Y237708D01*
X288105Y236458D01*
X288725Y235000D01*
X289035Y233333D01*
Y231667D01*
X288725Y230000D01*
X288105Y228542D01*
X287175Y227291D01*
X286090Y226458D01*
X284850Y226250D01*
G01X286090Y229583D02*
X287950Y226250D01*
G01X297250Y238750D02*
Y226250D01*
G01X293685Y238750D02*
X300815D01*
G01X309650Y226250D02*
Y231875D01*
X306550Y238750D01*
G01X312750D02*
X309650Y231875D01*
G54D13*
G01X207350Y-58650D02*
Y-61650D01*
G01X206583Y-58650D02*
X208117D01*
G01X209950Y-61650D02*
X209683Y-61600D01*
X209450Y-61400D01*
X209250Y-61100D01*
X209117Y-60750D01*
X209050Y-60350D01*
Y-59950D01*
X209117Y-59550D01*
X209250Y-59200D01*
X209450Y-58900D01*
X209683Y-58700D01*
X209950Y-58650D01*
X210217Y-58700D01*
X210450Y-58900D01*
X210650Y-59200D01*
X210783Y-59550D01*
X210850Y-59950D01*
Y-60350D01*
X210783Y-60750D01*
X210650Y-61100D01*
X210450Y-61400D01*
X210217Y-61600D01*
X209950Y-61650D01*
G01X212550Y-58650D02*
Y-61650D01*
G01X211783Y-58650D02*
X213317D01*
G01X214317Y-61650D02*
X215150Y-58650D01*
X215983Y-61650D01*
G01X215683Y-60600D02*
X214617D01*
G01X217083Y-58650D02*
Y-61650D01*
X218417D01*
G01X222950Y-58650D02*
Y-61650D01*
G01X222183Y-58650D02*
X223717D01*
G01X224850Y-61650D02*
Y-58650D01*
G01X226250D02*
Y-61650D01*
G01Y-60150D02*
X224850D01*
G01X227750Y-58650D02*
X228550D01*
G01X228150D02*
Y-61650D01*
G01X227750D02*
X228550D01*
G01X231483Y-58900D02*
X231283Y-58750D01*
X231050Y-58650D01*
X230783D01*
X230483Y-58800D01*
X230250Y-59050D01*
X230083Y-59350D01*
X229950Y-59850D01*
X229917Y-60300D01*
X229983Y-60750D01*
X230083Y-61050D01*
X230283Y-61350D01*
X230517Y-61550D01*
X230750Y-61650D01*
X230983D01*
X231217Y-61550D01*
X231417Y-61400D01*
X231583Y-61200D01*
G01X232617Y-61650D02*
Y-58650D01*
G01X233883D02*
X232617Y-60500D01*
G01X234083Y-61650D02*
X233183Y-59650D01*
G01X235183Y-61650D02*
Y-58650D01*
X236717Y-61650D01*
Y-58650D01*
G01X239217Y-61650D02*
X237883D01*
Y-58650D01*
X239217D01*
G01X238683Y-60100D02*
X237883D01*
G01X240450Y-61250D02*
X240717Y-61500D01*
X241017Y-61650D01*
X241283D01*
X241550Y-61500D01*
X241750Y-61250D01*
X241850Y-60900D01*
X241783Y-60550D01*
X241617Y-60250D01*
X241317Y-60050D01*
X240917Y-59950D01*
X240683Y-59750D01*
X240583Y-59400D01*
X240650Y-59050D01*
X240817Y-58800D01*
X241050Y-58650D01*
X241283D01*
X241517Y-58750D01*
X241717Y-59000D01*
G01X243050Y-61250D02*
X243317Y-61500D01*
X243617Y-61650D01*
X243883D01*
X244150Y-61500D01*
X244350Y-61250D01*
X244450Y-60900D01*
X244383Y-60550D01*
X244217Y-60250D01*
X243917Y-60050D01*
X243517Y-59950D01*
X243283Y-59750D01*
X243183Y-59400D01*
X243250Y-59050D01*
X243417Y-58800D01*
X243650Y-58650D01*
X243883D01*
X244117Y-58750D01*
X244317Y-59000D01*
G01X248950Y-61650D02*
Y-58650D01*
X248550Y-59250D01*
G01Y-61650D02*
X249350D01*
G01X251550Y-61750D02*
X251483Y-61700D01*
Y-61600D01*
X251550Y-61550D01*
X251617Y-61600D01*
Y-61700D01*
X251550Y-61750D01*
G01X253417Y-61200D02*
X253617Y-61450D01*
X253850Y-61600D01*
X254150Y-61650D01*
X254450Y-61550D01*
X254683Y-61350D01*
X254850Y-61000D01*
X254883Y-60600D01*
X254817Y-60200D01*
X254650Y-59950D01*
X254417Y-59750D01*
X254183Y-59700D01*
X253950Y-59750D01*
X253650Y-59950D01*
X253750Y-58650D01*
X254650D01*
G01X256183Y-61300D02*
X256417Y-61550D01*
X256683Y-61650D01*
X256950Y-61550D01*
X257183Y-61250D01*
X257350Y-60800D01*
X257417Y-60350D01*
Y-59800D01*
X257350Y-59350D01*
X257183Y-58950D01*
X256983Y-58750D01*
X256750Y-58650D01*
X256483Y-58750D01*
X256283Y-58950D01*
X256150Y-59250D01*
X256083Y-59650D01*
X256150Y-60000D01*
X256317Y-60350D01*
X256517Y-60550D01*
X256750Y-60600D01*
X257017Y-60500D01*
X257217Y-60250D01*
X257417Y-59800D01*
G01X258783Y-61300D02*
X259017Y-61550D01*
X259283Y-61650D01*
X259550Y-61550D01*
X259783Y-61250D01*
X259950Y-60800D01*
X260017Y-60350D01*
Y-59800D01*
X259950Y-59350D01*
X259783Y-58950D01*
X259583Y-58750D01*
X259350Y-58650D01*
X259083Y-58750D01*
X258883Y-58950D01*
X258750Y-59250D01*
X258683Y-59650D01*
X258750Y-60000D01*
X258917Y-60350D01*
X259117Y-60550D01*
X259350Y-60600D01*
X259617Y-60500D01*
X259817Y-60250D01*
X260017Y-59800D01*
G01X261383Y-61300D02*
X261617Y-61550D01*
X261883Y-61650D01*
X262150Y-61550D01*
X262383Y-61250D01*
X262550Y-60800D01*
X262617Y-60350D01*
Y-59800D01*
X262550Y-59350D01*
X262383Y-58950D01*
X262183Y-58750D01*
X261950Y-58650D01*
X261683Y-58750D01*
X261483Y-58950D01*
X261350Y-59250D01*
X261283Y-59650D01*
X261350Y-60000D01*
X261517Y-60350D01*
X261717Y-60550D01*
X261950Y-60600D01*
X262217Y-60500D01*
X262417Y-60250D01*
X262617Y-59800D01*
G01X264950Y-61650D02*
Y-58650D01*
X263717Y-60800D01*
X265383D01*
G01X266517Y-60400D02*
X266750Y-60050D01*
X266950Y-59850D01*
X267217Y-59750D01*
X267450Y-59850D01*
X267617Y-60050D01*
X267750Y-60350D01*
X267783Y-60700D01*
X267750Y-61000D01*
X267617Y-61300D01*
X267417Y-61550D01*
X267183Y-61650D01*
X266917Y-61550D01*
X266683Y-61250D01*
X266550Y-60800D01*
X266517Y-60300D01*
X266583Y-59650D01*
X266683Y-59300D01*
X266850Y-58950D01*
X267083Y-58700D01*
X267317Y-58650D01*
X267550Y-58750D01*
X267717Y-59000D01*
G01X271483Y-61650D02*
Y-58650D01*
X272350Y-61150D01*
X273217Y-58650D01*
Y-61650D01*
G01X274083D02*
Y-58650D01*
X274950Y-61150D01*
X275817Y-58650D01*
Y-61650D01*
G01X207917Y-56250D02*
Y-53250D01*
X208583D01*
X208850Y-53400D01*
X209050Y-53600D01*
X209217Y-53900D01*
X209350Y-54250D01*
X209383Y-54750D01*
X209350Y-55250D01*
X209217Y-55600D01*
X209050Y-55900D01*
X208850Y-56100D01*
X208583Y-56250D01*
X207917D01*
G01X211917D02*
X210583D01*
Y-53250D01*
X211917D01*
G01X211383Y-54700D02*
X210583D01*
G01X213150Y-55850D02*
X213417Y-56100D01*
X213717Y-56250D01*
X213983D01*
X214250Y-56100D01*
X214450Y-55850D01*
X214550Y-55500D01*
X214483Y-55150D01*
X214317Y-54850D01*
X214017Y-54650D01*
X213617Y-54550D01*
X213383Y-54350D01*
X213283Y-54000D01*
X213350Y-53650D01*
X213517Y-53400D01*
X213750Y-53250D01*
X213983D01*
X214217Y-53350D01*
X214417Y-53600D01*
G01X216050Y-53250D02*
X216850D01*
G01X216450D02*
Y-56250D01*
G01X216050D02*
X216850D01*
G01X219250Y-54750D02*
X219917D01*
Y-55650D01*
X219717Y-55950D01*
X219483Y-56150D01*
X219150Y-56250D01*
X218817Y-56150D01*
X218583Y-55950D01*
X218383Y-55650D01*
X218250Y-55300D01*
X218183Y-54900D01*
Y-54550D01*
X218250Y-54250D01*
X218383Y-53900D01*
X218583Y-53600D01*
X218783Y-53400D01*
X219050Y-53250D01*
X219283D01*
X219550Y-53350D01*
X219750Y-53550D01*
G01X220883Y-56250D02*
Y-53250D01*
X222417Y-56250D01*
Y-53250D01*
G01X227583Y-53500D02*
X227383Y-53350D01*
X227150Y-53250D01*
X226883D01*
X226583Y-53400D01*
X226350Y-53650D01*
X226183Y-53950D01*
X226050Y-54450D01*
X226017Y-54900D01*
X226083Y-55350D01*
X226183Y-55650D01*
X226383Y-55950D01*
X226617Y-56150D01*
X226850Y-56250D01*
X227083D01*
X227317Y-56150D01*
X227517Y-56000D01*
X227683Y-55800D01*
G01X228783Y-56250D02*
Y-53250D01*
X229617D01*
X229883Y-53400D01*
X230050Y-53600D01*
X230117Y-54000D01*
X230050Y-54400D01*
X229850Y-54650D01*
X229617Y-54800D01*
X228783D01*
G01X229617D02*
X230117Y-56250D01*
G01X232050D02*
X231783Y-56200D01*
X231550Y-56000D01*
X231350Y-55700D01*
X231217Y-55350D01*
X231150Y-54950D01*
Y-54550D01*
X231217Y-54150D01*
X231350Y-53800D01*
X231550Y-53500D01*
X231783Y-53300D01*
X232050Y-53250D01*
X232317Y-53300D01*
X232550Y-53500D01*
X232750Y-53800D01*
X232883Y-54150D01*
X232950Y-54550D01*
Y-54950D01*
X232883Y-55350D01*
X232750Y-55700D01*
X232550Y-56000D01*
X232317Y-56200D01*
X232050Y-56250D01*
G01X233950Y-55850D02*
X234217Y-56100D01*
X234517Y-56250D01*
X234783D01*
X235050Y-56100D01*
X235250Y-55850D01*
X235350Y-55500D01*
X235283Y-55150D01*
X235117Y-54850D01*
X234817Y-54650D01*
X234417Y-54550D01*
X234183Y-54350D01*
X234083Y-54000D01*
X234150Y-53650D01*
X234317Y-53400D01*
X234550Y-53250D01*
X234783D01*
X235017Y-53350D01*
X235217Y-53600D01*
G01X236550Y-55850D02*
X236817Y-56100D01*
X237117Y-56250D01*
X237383D01*
X237650Y-56100D01*
X237850Y-55850D01*
X237950Y-55500D01*
X237883Y-55150D01*
X237717Y-54850D01*
X237417Y-54650D01*
X237017Y-54550D01*
X236783Y-54350D01*
X236683Y-54000D01*
X236750Y-53650D01*
X236917Y-53400D01*
X237150Y-53250D01*
X237383D01*
X237617Y-53350D01*
X237817Y-53600D01*
G01X241750Y-55850D02*
X242017Y-56100D01*
X242317Y-56250D01*
X242583D01*
X242850Y-56100D01*
X243050Y-55850D01*
X243150Y-55500D01*
X243083Y-55150D01*
X242917Y-54850D01*
X242617Y-54650D01*
X242217Y-54550D01*
X241983Y-54350D01*
X241883Y-54000D01*
X241950Y-53650D01*
X242117Y-53400D01*
X242350Y-53250D01*
X242583D01*
X242817Y-53350D01*
X243017Y-53600D01*
G01X245717Y-56250D02*
X244383D01*
Y-53250D01*
X245717D01*
G01X245183Y-54700D02*
X244383D01*
G01X248383Y-53500D02*
X248183Y-53350D01*
X247950Y-53250D01*
X247683D01*
X247383Y-53400D01*
X247150Y-53650D01*
X246983Y-53950D01*
X246850Y-54450D01*
X246817Y-54900D01*
X246883Y-55350D01*
X246983Y-55650D01*
X247183Y-55950D01*
X247417Y-56150D01*
X247650Y-56250D01*
X247883D01*
X248117Y-56150D01*
X248317Y-56000D01*
X248483Y-55800D01*
G01X250250Y-53250D02*
Y-56250D01*
G01X249483Y-53250D02*
X251017D01*
G01X252450D02*
X253250D01*
G01X252850D02*
Y-56250D01*
G01X252450D02*
X253250D01*
G01X255450D02*
X255183Y-56200D01*
X254950Y-56000D01*
X254750Y-55700D01*
X254617Y-55350D01*
X254550Y-54950D01*
Y-54550D01*
X254617Y-54150D01*
X254750Y-53800D01*
X254950Y-53500D01*
X255183Y-53300D01*
X255450Y-53250D01*
X255717Y-53300D01*
X255950Y-53500D01*
X256150Y-53800D01*
X256283Y-54150D01*
X256350Y-54550D01*
Y-54950D01*
X256283Y-55350D01*
X256150Y-55700D01*
X255950Y-56000D01*
X255717Y-56200D01*
X255450Y-56250D01*
G01X257283D02*
Y-53250D01*
X258817Y-56250D01*
Y-53250D01*
G01X263983Y-53500D02*
X263783Y-53350D01*
X263550Y-53250D01*
X263283D01*
X262983Y-53400D01*
X262750Y-53650D01*
X262583Y-53950D01*
X262450Y-54450D01*
X262417Y-54900D01*
X262483Y-55350D01*
X262583Y-55650D01*
X262783Y-55950D01*
X263017Y-56150D01*
X263250Y-56250D01*
X263483D01*
X263717Y-56150D01*
X263917Y-56000D01*
X264083Y-55800D01*
G01X265150Y-56250D02*
Y-53250D01*
G01X266550D02*
Y-56250D01*
G01Y-54750D02*
X265150D01*
G01X267617Y-56250D02*
X268450Y-53250D01*
X269283Y-56250D01*
G01X268983Y-55200D02*
X267917D01*
G01X270383Y-56250D02*
Y-53250D01*
X271217D01*
X271483Y-53400D01*
X271650Y-53600D01*
X271717Y-54000D01*
X271650Y-54400D01*
X271450Y-54650D01*
X271217Y-54800D01*
X270383D01*
G01X271217D02*
X271717Y-56250D01*
G01X273650Y-53250D02*
Y-56250D01*
G01X272883Y-53250D02*
X274417D01*
G01X206350Y-57250D02*
X208350D01*
G01X208950D02*
X210950D01*
G01X211550D02*
X213550D01*
G01X214150D02*
X216150D01*
G01X216750D02*
X218750D01*
G01X219350D02*
X221350D01*
G01X221950D02*
X223950D01*
G01X224550D02*
X226550D01*
G01X227150D02*
X229150D01*
G01X229750D02*
X231750D01*
G01X232350D02*
X234350D01*
G01X234950D02*
X236950D01*
G01X237550D02*
X239550D01*
G01X240150D02*
X242150D01*
G01X242750D02*
X244750D01*
G01X245350D02*
X247350D01*
G01X247950D02*
X249950D01*
G01X250550D02*
X252550D01*
G01X253150D02*
X255150D01*
G01X255750D02*
X257750D01*
G01X258350D02*
X260350D01*
G01X260950D02*
X262950D01*
G01X263550D02*
X265550D01*
G01X266150D02*
X268150D01*
G01X268750D02*
X270750D01*
G01X271350D02*
X273350D01*
G01X273950D02*
X275950D01*
G01X238650Y162399D02*
X235650D01*
X236250Y161999D01*
G01X238650D02*
Y162799D01*
G01X237650Y164566D02*
Y165432D01*
G01X236150Y166966D02*
X235850Y167166D01*
X235700Y167399D01*
X235650Y167666D01*
X235750Y167999D01*
X236000Y168232D01*
X236300Y168299D01*
X236600Y168266D01*
X236850Y168132D01*
X237350Y167466D01*
X237700Y167166D01*
X238200Y166966D01*
X238650Y166899D01*
Y168299D01*
G01X274083Y-41900D02*
Y-44900D01*
X275417D01*
G01X276717Y-42400D02*
X276917Y-42100D01*
X277150Y-41950D01*
X277417Y-41900D01*
X277750Y-42000D01*
X277983Y-42250D01*
X278050Y-42550D01*
X278017Y-42850D01*
X277883Y-43100D01*
X277217Y-43600D01*
X276917Y-43950D01*
X276717Y-44450D01*
X276650Y-44900D01*
X278050D01*
G01X282817Y-43300D02*
X282950Y-43150D01*
X283050Y-42900D01*
X283117Y-42550D01*
X283050Y-42250D01*
X282917Y-42050D01*
X282683Y-41900D01*
X281783D01*
Y-44900D01*
X282883D01*
X283117Y-44700D01*
X283250Y-44400D01*
X283317Y-44050D01*
X283250Y-43700D01*
X283050Y-43400D01*
X282817Y-43300D01*
X281783D01*
G01X285150Y-44900D02*
X284883Y-44850D01*
X284650Y-44650D01*
X284450Y-44350D01*
X284317Y-44000D01*
X284250Y-43600D01*
Y-43200D01*
X284317Y-42800D01*
X284450Y-42450D01*
X284650Y-42150D01*
X284883Y-41950D01*
X285150Y-41900D01*
X285417Y-41950D01*
X285650Y-42150D01*
X285850Y-42450D01*
X285983Y-42800D01*
X286050Y-43200D01*
Y-43600D01*
X285983Y-44000D01*
X285850Y-44350D01*
X285650Y-44650D01*
X285417Y-44850D01*
X285150Y-44900D01*
G01X287750Y-41900D02*
Y-44900D01*
G01X286983Y-41900D02*
X288517D01*
G01X290350D02*
Y-44900D01*
G01X289583Y-41900D02*
X291117D01*
G01X292950Y-44900D02*
X292683Y-44850D01*
X292450Y-44650D01*
X292250Y-44350D01*
X292117Y-44000D01*
X292050Y-43600D01*
Y-43200D01*
X292117Y-42800D01*
X292250Y-42450D01*
X292450Y-42150D01*
X292683Y-41950D01*
X292950Y-41900D01*
X293217Y-41950D01*
X293450Y-42150D01*
X293650Y-42450D01*
X293783Y-42800D01*
X293850Y-43200D01*
Y-43600D01*
X293783Y-44000D01*
X293650Y-44350D01*
X293450Y-44650D01*
X293217Y-44850D01*
X292950Y-44900D01*
G01X294683D02*
Y-41900D01*
X295550Y-44400D01*
X296417Y-41900D01*
Y-44900D01*
G01X301483Y-42150D02*
X301283Y-42000D01*
X301050Y-41900D01*
X300783D01*
X300483Y-42050D01*
X300250Y-42300D01*
X300083Y-42600D01*
X299950Y-43100D01*
X299917Y-43550D01*
X299983Y-44000D01*
X300083Y-44300D01*
X300283Y-44600D01*
X300517Y-44800D01*
X300750Y-44900D01*
X300983D01*
X301217Y-44800D01*
X301417Y-44650D01*
X301583Y-44450D01*
G01X303350Y-44900D02*
X303083Y-44850D01*
X302850Y-44650D01*
X302650Y-44350D01*
X302517Y-44000D01*
X302450Y-43600D01*
Y-43200D01*
X302517Y-42800D01*
X302650Y-42450D01*
X302850Y-42150D01*
X303083Y-41950D01*
X303350Y-41900D01*
X303617Y-41950D01*
X303850Y-42150D01*
X304050Y-42450D01*
X304183Y-42800D01*
X304250Y-43200D01*
Y-43600D01*
X304183Y-44000D01*
X304050Y-44350D01*
X303850Y-44650D01*
X303617Y-44850D01*
X303350Y-44900D01*
G01X305183D02*
Y-41900D01*
X306717Y-44900D01*
Y-41900D01*
G01X307817Y-44900D02*
Y-41900D01*
X308483D01*
X308750Y-42050D01*
X308950Y-42250D01*
X309117Y-42550D01*
X309250Y-42900D01*
X309283Y-43400D01*
X309250Y-43900D01*
X309117Y-44250D01*
X308950Y-44550D01*
X308750Y-44750D01*
X308483Y-44900D01*
X307817D01*
G01X310417Y-41900D02*
Y-44050D01*
X310550Y-44500D01*
X310817Y-44800D01*
X311150Y-44900D01*
X311483Y-44800D01*
X311750Y-44500D01*
X311883Y-44050D01*
Y-41900D01*
G01X314483Y-42150D02*
X314283Y-42000D01*
X314050Y-41900D01*
X313783D01*
X313483Y-42050D01*
X313250Y-42300D01*
X313083Y-42600D01*
X312950Y-43100D01*
X312917Y-43550D01*
X312983Y-44000D01*
X313083Y-44300D01*
X313283Y-44600D01*
X313517Y-44800D01*
X313750Y-44900D01*
X313983D01*
X314217Y-44800D01*
X314417Y-44650D01*
X314583Y-44450D01*
G01X316350Y-41900D02*
Y-44900D01*
G01X315583Y-41900D02*
X317117D01*
G01X318950Y-44900D02*
X318683Y-44850D01*
X318450Y-44650D01*
X318250Y-44350D01*
X318117Y-44000D01*
X318050Y-43600D01*
Y-43200D01*
X318117Y-42800D01*
X318250Y-42450D01*
X318450Y-42150D01*
X318683Y-41950D01*
X318950Y-41900D01*
X319217Y-41950D01*
X319450Y-42150D01*
X319650Y-42450D01*
X319783Y-42800D01*
X319850Y-43200D01*
Y-43600D01*
X319783Y-44000D01*
X319650Y-44350D01*
X319450Y-44650D01*
X319217Y-44850D01*
X318950Y-44900D01*
G01X320883D02*
Y-41900D01*
X321717D01*
X321983Y-42050D01*
X322150Y-42250D01*
X322217Y-42650D01*
X322150Y-43050D01*
X321950Y-43300D01*
X321717Y-43450D01*
X320883D01*
G01X321717D02*
X322217Y-44900D01*
G01X279217Y-49000D02*
X280683Y-46800D01*
G01X279950Y-46400D02*
Y-49400D01*
G01X280683Y-49000D02*
X279217Y-46800D01*
G01X278950Y-47900D02*
X280950D01*
G01X287050Y-48500D02*
X287317Y-48750D01*
X287617Y-48900D01*
X287883D01*
X288150Y-48750D01*
X288350Y-48500D01*
X288450Y-48150D01*
X288383Y-47800D01*
X288217Y-47500D01*
X287917Y-47300D01*
X287517Y-47200D01*
X287283Y-47000D01*
X287183Y-46650D01*
X287250Y-46300D01*
X287417Y-46050D01*
X287650Y-45900D01*
X287883D01*
X288117Y-46000D01*
X288317Y-46250D01*
G01X289617Y-45900D02*
Y-48050D01*
X289750Y-48500D01*
X290017Y-48800D01*
X290350Y-48900D01*
X290683Y-48800D01*
X290950Y-48500D01*
X291083Y-48050D01*
Y-45900D01*
G01X292283Y-48900D02*
Y-45900D01*
X293117D01*
X293383Y-46050D01*
X293550Y-46250D01*
X293617Y-46650D01*
X293550Y-47050D01*
X293350Y-47300D01*
X293117Y-47450D01*
X292283D01*
G01X293117D02*
X293617Y-48900D01*
G01X294917D02*
Y-45900D01*
X296183D01*
G01X295717Y-47350D02*
X294917D01*
G01X297317Y-48900D02*
X298150Y-45900D01*
X298983Y-48900D01*
G01X298683Y-47850D02*
X297617D01*
G01X301483Y-46150D02*
X301283Y-46000D01*
X301050Y-45900D01*
X300783D01*
X300483Y-46050D01*
X300250Y-46300D01*
X300083Y-46600D01*
X299950Y-47100D01*
X299917Y-47550D01*
X299983Y-48000D01*
X300083Y-48300D01*
X300283Y-48600D01*
X300517Y-48800D01*
X300750Y-48900D01*
X300983D01*
X301217Y-48800D01*
X301417Y-48650D01*
X301583Y-48450D01*
G01X304017Y-48900D02*
X302683D01*
Y-45900D01*
X304017D01*
G01X303483Y-47350D02*
X302683D01*
G01X279217Y57516D02*
X280683Y59716D01*
G01X279950Y60116D02*
Y57116D01*
G01X280683Y57516D02*
X279217Y59716D01*
G01X278950Y58616D02*
X280950D01*
G01X287017Y57616D02*
Y60616D01*
X287683D01*
X287950Y60466D01*
X288150Y60266D01*
X288317Y59966D01*
X288450Y59616D01*
X288483Y59116D01*
X288450Y58616D01*
X288317Y58266D01*
X288150Y57966D01*
X287950Y57766D01*
X287683Y57616D01*
X287017D01*
G01X289950Y60616D02*
X290750D01*
G01X290350D02*
Y57616D01*
G01X289950D02*
X290750D01*
G01X293617D02*
X292283D01*
Y60616D01*
X293617D01*
G01X293083Y59166D02*
X292283D01*
G01X294883Y60616D02*
Y57616D01*
X296217D01*
G01X298817D02*
X297483D01*
Y60616D01*
X298817D01*
G01X298283Y59166D02*
X297483D01*
G01X301483Y60366D02*
X301283Y60516D01*
X301050Y60616D01*
X300783D01*
X300483Y60466D01*
X300250Y60216D01*
X300083Y59916D01*
X299950Y59416D01*
X299917Y58966D01*
X299983Y58516D01*
X300083Y58216D01*
X300283Y57916D01*
X300517Y57716D01*
X300750Y57616D01*
X300983D01*
X301217Y57716D01*
X301417Y57866D01*
X301583Y58066D01*
G01X303350Y60616D02*
Y57616D01*
G01X302583Y60616D02*
X304117D01*
G01X305283Y57616D02*
Y60616D01*
X306117D01*
X306383Y60466D01*
X306550Y60266D01*
X306617Y59866D01*
X306550Y59466D01*
X306350Y59216D01*
X306117Y59066D01*
X305283D01*
G01X306117D02*
X306617Y57616D01*
G01X308150Y60616D02*
X308950D01*
G01X308550D02*
Y57616D01*
G01X308150D02*
X308950D01*
G01X311883Y60366D02*
X311683Y60516D01*
X311450Y60616D01*
X311183D01*
X310883Y60466D01*
X310650Y60216D01*
X310483Y59916D01*
X310350Y59416D01*
X310317Y58966D01*
X310383Y58516D01*
X310483Y58216D01*
X310683Y57916D01*
X310917Y57716D01*
X311150Y57616D01*
X311383D01*
X311617Y57716D01*
X311817Y57866D01*
X311983Y58066D01*
G01X279217Y159299D02*
X280683Y161499D01*
G01X279950Y161899D02*
Y158899D01*
G01X280683Y159299D02*
X279217Y161499D01*
G01X278950Y160399D02*
X280950D01*
G01X287050Y159799D02*
X287317Y159549D01*
X287617Y159399D01*
X287883D01*
X288150Y159549D01*
X288350Y159799D01*
X288450Y160149D01*
X288383Y160499D01*
X288217Y160799D01*
X287917Y160999D01*
X287517Y161099D01*
X287283Y161299D01*
X287183Y161649D01*
X287250Y161999D01*
X287417Y162249D01*
X287650Y162399D01*
X287883D01*
X288117Y162299D01*
X288317Y162049D01*
G01X289617Y162399D02*
Y160249D01*
X289750Y159799D01*
X290017Y159499D01*
X290350Y159399D01*
X290683Y159499D01*
X290950Y159799D01*
X291083Y160249D01*
Y162399D01*
G01X292283Y159399D02*
Y162399D01*
X293117D01*
X293383Y162249D01*
X293550Y162049D01*
X293617Y161649D01*
X293550Y161249D01*
X293350Y160999D01*
X293117Y160849D01*
X292283D01*
G01X293117D02*
X293617Y159399D01*
G01X294917D02*
Y162399D01*
X296183D01*
G01X295717Y160949D02*
X294917D01*
G01X297317Y159399D02*
X298150Y162399D01*
X298983Y159399D01*
G01X298683Y160449D02*
X297617D01*
G01X301483Y162149D02*
X301283Y162299D01*
X301050Y162399D01*
X300783D01*
X300483Y162249D01*
X300250Y161999D01*
X300083Y161699D01*
X299950Y161199D01*
X299917Y160749D01*
X299983Y160299D01*
X300083Y159999D01*
X300283Y159699D01*
X300517Y159499D01*
X300750Y159399D01*
X300983D01*
X301217Y159499D01*
X301417Y159649D01*
X301583Y159849D01*
G01X304017Y159399D02*
X302683D01*
Y162399D01*
X304017D01*
G01X303483Y160949D02*
X302683D01*
G01X274083Y157399D02*
Y154399D01*
X275417D01*
G01X277350D02*
Y157399D01*
X276950Y156799D01*
G01Y154399D02*
X277750D01*
G01X282550Y157399D02*
Y154399D01*
G01X281783Y157399D02*
X283317D01*
G01X285150Y154399D02*
X284883Y154449D01*
X284650Y154649D01*
X284450Y154949D01*
X284317Y155299D01*
X284250Y155699D01*
Y156099D01*
X284317Y156499D01*
X284450Y156849D01*
X284650Y157149D01*
X284883Y157349D01*
X285150Y157399D01*
X285417Y157349D01*
X285650Y157149D01*
X285850Y156849D01*
X285983Y156499D01*
X286050Y156099D01*
Y155699D01*
X285983Y155299D01*
X285850Y154949D01*
X285650Y154649D01*
X285417Y154449D01*
X285150Y154399D01*
G01X287083D02*
Y157399D01*
X287883D01*
X288150Y157249D01*
X288350Y156899D01*
X288417Y156499D01*
X288350Y156099D01*
X288183Y155799D01*
X287883Y155649D01*
X287083D01*
G01X293683Y157149D02*
X293483Y157299D01*
X293250Y157399D01*
X292983D01*
X292683Y157249D01*
X292450Y156999D01*
X292283Y156699D01*
X292150Y156199D01*
X292117Y155749D01*
X292183Y155299D01*
X292283Y154999D01*
X292483Y154699D01*
X292717Y154499D01*
X292950Y154399D01*
X293183D01*
X293417Y154499D01*
X293617Y154649D01*
X293783Y154849D01*
G01X295550Y154399D02*
X295283Y154449D01*
X295050Y154649D01*
X294850Y154949D01*
X294717Y155299D01*
X294650Y155699D01*
Y156099D01*
X294717Y156499D01*
X294850Y156849D01*
X295050Y157149D01*
X295283Y157349D01*
X295550Y157399D01*
X295817Y157349D01*
X296050Y157149D01*
X296250Y156849D01*
X296383Y156499D01*
X296450Y156099D01*
Y155699D01*
X296383Y155299D01*
X296250Y154949D01*
X296050Y154649D01*
X295817Y154449D01*
X295550Y154399D01*
G01X297383D02*
Y157399D01*
X298917Y154399D01*
Y157399D01*
G01X300017Y154399D02*
Y157399D01*
X300683D01*
X300950Y157249D01*
X301150Y157049D01*
X301317Y156749D01*
X301450Y156399D01*
X301483Y155899D01*
X301450Y155399D01*
X301317Y155049D01*
X301150Y154749D01*
X300950Y154549D01*
X300683Y154399D01*
X300017D01*
G01X302617Y157399D02*
Y155249D01*
X302750Y154799D01*
X303017Y154499D01*
X303350Y154399D01*
X303683Y154499D01*
X303950Y154799D01*
X304083Y155249D01*
Y157399D01*
G01X306683Y157149D02*
X306483Y157299D01*
X306250Y157399D01*
X305983D01*
X305683Y157249D01*
X305450Y156999D01*
X305283Y156699D01*
X305150Y156199D01*
X305117Y155749D01*
X305183Y155299D01*
X305283Y154999D01*
X305483Y154699D01*
X305717Y154499D01*
X305950Y154399D01*
X306183D01*
X306417Y154499D01*
X306617Y154649D01*
X306783Y154849D01*
G01X308550Y157399D02*
Y154399D01*
G01X307783Y157399D02*
X309317D01*
G01X311150Y154399D02*
X310883Y154449D01*
X310650Y154649D01*
X310450Y154949D01*
X310317Y155299D01*
X310250Y155699D01*
Y156099D01*
X310317Y156499D01*
X310450Y156849D01*
X310650Y157149D01*
X310883Y157349D01*
X311150Y157399D01*
X311417Y157349D01*
X311650Y157149D01*
X311850Y156849D01*
X311983Y156499D01*
X312050Y156099D01*
Y155699D01*
X311983Y155299D01*
X311850Y154949D01*
X311650Y154649D01*
X311417Y154449D01*
X311150Y154399D01*
G01X313083D02*
Y157399D01*
X313917D01*
X314183Y157249D01*
X314350Y157049D01*
X314417Y156649D01*
X314350Y156249D01*
X314150Y155999D01*
X313917Y155849D01*
X313083D01*
G01X313917D02*
X314417Y154399D01*
M02*
