G04 ================== begin FILE IDENTIFICATION RECORD ==================*
G04 Layout Name:  C:/USERS/CRIST/DESKTOP/SCHEMATICS/allegro/PROIECT-CEF2.brd*
G04 Film Name:    SPTOP*
G04 File Format:  Gerber RS274X*
G04 File Origin:  Cadence Allegro 17.2-S025*
G04 Origin Date:  Sun Dec 14 02:04:41 2025*
G04 *
G04 Layer:  VIA CLASS/PASTEMASK_TOP*
G04 Layer:  PIN/PASTEMASK_TOP*
G04 Layer:  PACKAGE GEOMETRY/PASTEMASK_TOP*
G04 Layer:  DRC ERROR CLASS/PASTEMASK_TOP*
G04 Layer:  BOARD GEOMETRY/DESIGN_OUTLINE*
G04 *
G04 Offset:    (0.00 0.00)*
G04 Mirror:    No*
G04 Mode:      Positive*
G04 Rotation:  0*
G04 FullContactRelief:  No*
G04 UndefLineWidth:     0.10*
G04 ================== end FILE IDENTIFICATION RECORD ====================*
%FSLAX25Y25*MOIN*%
%IR0*IPPOS*OFA0.00000B0.00000*MIA0B0*SFA1.00000B1.00000*%
%ADD14R,.064X.1*%
%ADD11R,.045X.045*%
%ADD16R,.046X.046*%
%ADD10C,.03937*%
%ADD13R,.0484X.0484*%
%ADD12R,.0684X.0684*%
%ADD15R,.05562X.0709*%
%ADD17C,.0001*%
G75*
%LPD*%
G75*
G54D10*
X20000Y20000D03*
X137500Y137500D03*
G54D11*
X21000Y32000D03*
X12600D03*
X20000Y58000D03*
X11600D03*
X12000Y45000D03*
X20400D03*
X11000Y83000D03*
X19400D03*
X20000Y70000D03*
X11600D03*
X12000Y104000D03*
Y95600D03*
X37000Y32000D03*
X45400D03*
X48100Y48900D03*
X40000Y53000D03*
Y44800D03*
X38900Y68100D03*
X47000Y64000D03*
Y72200D03*
X44000Y84000D03*
Y92400D03*
X46900Y107100D03*
X32100Y99900D03*
X24000Y104000D03*
Y95800D03*
X46900Y124100D03*
X30000Y138000D03*
Y146400D03*
X82000Y31000D03*
Y13000D03*
X68000Y21000D03*
Y12600D03*
X59000Y32000D03*
X67400D03*
X81100Y57100D03*
X77000Y49000D03*
X79900Y91100D03*
X80000Y73000D03*
X71600D03*
X58000Y84000D03*
X66400D03*
X55000Y120000D03*
Y103000D03*
Y111200D03*
X79100Y103900D03*
X71000Y108000D03*
Y99800D03*
X76000Y120600D03*
X55000Y128200D03*
X78100Y143900D03*
X70000Y148000D03*
Y139800D03*
X55000Y139000D03*
Y147400D03*
X76000Y129000D03*
X90400Y31000D03*
Y13000D03*
X85200Y49000D03*
X100100Y57100D03*
X96000Y49000D03*
X104200D03*
X88000Y87000D03*
X99100Y78100D03*
X95000Y70000D03*
X103200D03*
X88000Y95200D03*
X111000Y118000D03*
X111600Y105000D03*
X117000Y92000D03*
X125400D03*
X120000Y77000D03*
Y68600D03*
X135000Y95000D03*
Y103400D03*
X143000Y114000D03*
X134600D03*
X119400Y118000D03*
X120000Y105000D03*
X134000Y127000D03*
X142400D03*
G54D12*
X14000Y119000D03*
Y142600D03*
X142000Y60400D03*
Y84000D03*
G54D13*
X30000Y117500D03*
Y125400D03*
X142000Y44000D03*
X134100D03*
G54D14*
X42000Y136000D03*
X105000Y17500D03*
G54D15*
X96756Y137472D03*
G54D16*
X119000Y132945D03*
Y142000D03*
G54D17*
G01X0Y0D02*
Y157480D01*
X157480D01*
Y0D01*
X0D01*
M02*
