G04 ================== begin FILE IDENTIFICATION RECORD ==================*
G04 Layout Name:  C:/USERS/CRIST/DESKTOP/SCHEMATICS/allegro/PROIECT-CEF2.brd*
G04 Film Name:    SSTOP*
G04 File Format:  Gerber RS274X*
G04 File Origin:  Cadence Allegro 17.2-S025*
G04 Origin Date:  Sun Dec 14 02:04:41 2025*
G04 *
G04 Layer:  REF DES/SILKSCREEN_TOP*
G04 Layer:  PACKAGE GEOMETRY/SILKSCREEN_TOP*
G04 Layer:  BOARD GEOMETRY/SILKSCREEN_TOP*
G04 Layer:  BOARD GEOMETRY/DESIGN_OUTLINE*
G04 *
G04 Offset:    (0.00 0.00)*
G04 Mirror:    No*
G04 Mode:      Positive*
G04 Rotation:  0*
G04 FullContactRelief:  No*
G04 UndefLineWidth:     0.10*
G04 ================== end FILE IDENTIFICATION RECORD ====================*
%FSLAX25Y25*MOIN*%
%IR0*IPPOS*OFA0.00000B0.00000*MIA0B0*SFA1.00000B1.00000*%
%ADD10C,.0001*%
%ADD11C,.006*%
%ADD12C,.007*%
%ADD13C,.00787*%
G75*
%LPD*%
G75*
G54D10*
G01X0Y0D02*
Y157480D01*
X157480D01*
Y0D01*
X0D01*
G01X46800Y54900D02*
Y42900D01*
X41200D01*
Y54900D01*
X46800D01*
G01X40200Y62100D02*
Y74100D01*
X45800D01*
Y62100D01*
X40200D01*
G01X48200Y118100D02*
Y130100D01*
X53800D01*
Y118100D01*
X48200D01*
G01Y101100D02*
Y113100D01*
X53800D01*
Y101100D01*
X48200D01*
G01X30800Y105900D02*
Y93900D01*
X25200D01*
Y105900D01*
X30800D01*
G01X75100Y55800D02*
X87100D01*
Y50200D01*
X75100D01*
Y55800D01*
G01X77800Y109900D02*
Y97900D01*
X72200D01*
Y109900D01*
X77800D01*
G01X76800Y149900D02*
Y137900D01*
X71200D01*
Y149900D01*
X76800D01*
G01X94100Y55800D02*
X106100D01*
Y50200D01*
X94100D01*
Y55800D01*
G01X81200Y85100D02*
Y97100D01*
X86800D01*
Y85100D01*
X81200D01*
G01X93100Y76800D02*
X105100D01*
Y71200D01*
X93100D01*
Y76800D01*
G54D11*
G01X24800Y28250D02*
X8800D01*
G01D02*
Y35750D01*
G01X23800Y54250D02*
X7800D01*
G01D02*
Y61750D01*
G01X24200Y41250D02*
X8200D01*
G01D02*
Y48750D01*
G01D02*
X24200D01*
G01X8800Y35750D02*
X24800D01*
G01X23200Y79250D02*
X7200D01*
G01D02*
Y86750D01*
G01D02*
X23200D01*
G01X7800Y73750D02*
X23800D01*
G01Y66250D02*
X7800D01*
G01D02*
Y73750D01*
G01Y61750D02*
X23800D01*
G01X6500Y148050D02*
Y113550D01*
G01D02*
X21500D01*
G01X8250Y91800D02*
Y107800D01*
G01D02*
X15750D01*
G01D02*
Y91800D01*
G01D02*
X8250D01*
G01X21500Y148050D02*
X6500D01*
G01X24800Y35750D02*
Y28250D01*
G01X49200D02*
X33200D01*
G01D02*
Y35750D01*
G01X49200D02*
Y28250D01*
G01X23800Y61750D02*
Y54250D01*
G01X24200Y48750D02*
Y41250D01*
G01X33200Y35750D02*
X49200D01*
G01X47750Y96200D02*
Y80200D01*
G01D02*
X40250D01*
G01D02*
Y96200D01*
G01X23200Y86750D02*
Y79250D01*
G01X23800Y73750D02*
Y66250D01*
G01X35250Y129300D02*
Y113500D01*
G01D02*
X30850D01*
G01D02*
X30000Y112650D01*
G01D02*
X29150Y113500D01*
G01D02*
X24750D01*
G01D02*
Y129300D01*
G01X21500Y113550D02*
Y148050D01*
G01X40250Y96200D02*
X47750D01*
G01X24750Y129300D02*
X35250D01*
G01X33750Y150200D02*
Y134200D01*
G01D02*
X26250D01*
G01D02*
Y150200D01*
G01D02*
X33750D01*
G01X37500Y142500D02*
X46600D01*
G01X37500Y129500D02*
X46600D01*
G01X37550D02*
Y142500D01*
G01X46550D02*
Y129500D01*
G01X94200Y27250D02*
X78200D01*
G01D02*
Y34750D01*
G01X94200Y9250D02*
X78200D01*
G01D02*
Y16750D01*
G01D02*
X94200D01*
G01X64250Y8800D02*
Y24800D01*
G01D02*
X71750D01*
G01D02*
Y8800D01*
G01D02*
X64250D01*
G01X71200Y28250D02*
X55200D01*
G01D02*
Y35750D01*
G01X71200D02*
Y28250D01*
G01X78200Y34750D02*
X94200D01*
G01X55200Y35750D02*
X71200D01*
G01X67800Y76750D02*
X83800D01*
G01Y69250D02*
X67800D01*
G01D02*
Y76750D01*
G01X70200Y80250D02*
X54200D01*
G01D02*
Y87750D01*
G01D02*
X70200D01*
G01D02*
Y80250D01*
G01X72250Y116800D02*
Y132800D01*
G01X79750D02*
Y116800D01*
G01D02*
X72250D01*
G01X58750Y151200D02*
Y135200D01*
G01D02*
X51250D01*
G01D02*
Y151200D01*
G01X72250Y132800D02*
X79750D01*
G01X51250Y151200D02*
X58750D01*
G01X94200Y34750D02*
Y27250D01*
G01Y16750D02*
Y9250D01*
G01X100500Y24000D02*
X109600D01*
G01X100500Y11000D02*
X109600D01*
G01X100550D02*
Y24000D01*
G01X109550D02*
Y11000D01*
G01X83800Y76750D02*
Y69250D01*
G01X123200Y114250D02*
X107200D01*
G01D02*
Y121750D01*
G01X107800Y108750D02*
X123800D01*
G01Y101250D02*
X107800D01*
G01D02*
Y108750D01*
G01X107200Y121750D02*
X123200D01*
G01X130200Y49250D02*
X146000D01*
G01Y38750D02*
X130200D01*
G01D02*
Y49250D01*
G01X134500Y54950D02*
X149500D01*
G01X134500Y89450D02*
Y54950D01*
G01X149500Y89450D02*
X134500D01*
G01X129200Y88250D02*
X113200D01*
G01D02*
Y95750D01*
G01X129200D02*
Y88250D01*
G01X116250Y64800D02*
Y80800D01*
G01D02*
X123750D01*
G01D02*
Y64800D01*
G01D02*
X116250D01*
G01X113200Y95750D02*
X129200D01*
G01X138750Y107200D02*
Y91200D01*
G01D02*
X131250D01*
G01D02*
Y107200D01*
G01D02*
X138750D01*
G01X130800Y117750D02*
X146800D01*
G01Y110250D02*
X130800D01*
G01D02*
Y117750D01*
G01X123200Y121750D02*
Y114250D01*
G01X123800Y108750D02*
Y101250D01*
G01X146200Y123250D02*
X130200D01*
G01D02*
Y130750D01*
G01D02*
X146200D01*
G01X146000Y49250D02*
Y44850D01*
G01D02*
X146850Y44000D01*
G01D02*
X146000Y43150D01*
G01D02*
Y38750D01*
G01X149500Y54950D02*
Y89450D01*
G01X146800Y117750D02*
Y110250D01*
G01X146200Y130750D02*
Y123250D01*
G54D12*
G01X8333Y24000D02*
Y27000D01*
X9167D01*
X9433Y26850D01*
X9600Y26650D01*
X9667Y26250D01*
X9600Y25850D01*
X9400Y25600D01*
X9167Y25450D01*
X8333D01*
G01X9167D02*
X9667Y24000D01*
G01X11600D02*
Y27000D01*
X11200Y26400D01*
G01Y24000D02*
X12000D01*
G01X14200D02*
Y27000D01*
X13800Y26400D01*
G01Y24000D02*
X14600D01*
G01X8333Y50000D02*
Y53000D01*
X9167D01*
X9433Y52850D01*
X9600Y52650D01*
X9667Y52250D01*
X9600Y51850D01*
X9400Y51600D01*
X9167Y51450D01*
X8333D01*
G01X9167D02*
X9667Y50000D01*
G01X11033Y50350D02*
X11267Y50100D01*
X11533Y50000D01*
X11800Y50100D01*
X12033Y50400D01*
X12200Y50850D01*
X12267Y51300D01*
Y51850D01*
X12200Y52300D01*
X12033Y52700D01*
X11833Y52900D01*
X11600Y53000D01*
X11333Y52900D01*
X11133Y52700D01*
X11000Y52400D01*
X10933Y52000D01*
X11000Y51650D01*
X11167Y51300D01*
X11367Y51100D01*
X11600Y51050D01*
X11867Y51150D01*
X12067Y51400D01*
X12267Y51850D01*
G01X17333Y75000D02*
Y78000D01*
X18167D01*
X18433Y77850D01*
X18600Y77650D01*
X18667Y77250D01*
X18600Y76850D01*
X18400Y76600D01*
X18167Y76450D01*
X17333D01*
G01X18167D02*
X18667Y75000D01*
G01X20533D02*
X20600Y75650D01*
X20700Y76200D01*
X20833Y76700D01*
X21000Y77250D01*
X21267Y78000D01*
X19933D01*
G01X8333Y88000D02*
Y91000D01*
X9167D01*
X9433Y90850D01*
X9600Y90650D01*
X9667Y90250D01*
X9600Y89850D01*
X9400Y89600D01*
X9167Y89450D01*
X8333D01*
G01X9167D02*
X9667Y88000D01*
G01X11600D02*
Y91000D01*
X11200Y90400D01*
G01Y88000D02*
X12000D01*
G01X13567Y90500D02*
X13767Y90800D01*
X14000Y90950D01*
X14267Y91000D01*
X14600Y90900D01*
X14833Y90650D01*
X14900Y90350D01*
X14867Y90050D01*
X14733Y89800D01*
X14067Y89300D01*
X13767Y88950D01*
X13567Y88450D01*
X13500Y88000D01*
X14900D01*
G01X15333Y149600D02*
X15500Y149300D01*
X15700Y149100D01*
X15933Y149000D01*
X16200Y149100D01*
X16400Y149300D01*
X16600Y149600D01*
X16667Y150000D01*
Y152000D01*
G01X18600Y149000D02*
Y152000D01*
X18200Y151400D01*
G01Y149000D02*
X19000D01*
G01X34333Y24000D02*
Y27000D01*
X35167D01*
X35433Y26850D01*
X35600Y26650D01*
X35667Y26250D01*
X35600Y25850D01*
X35400Y25600D01*
X35167Y25450D01*
X34333D01*
G01X35167D02*
X35667Y24000D01*
G01X36967Y26500D02*
X37167Y26800D01*
X37400Y26950D01*
X37667Y27000D01*
X38000Y26900D01*
X38233Y26650D01*
X38300Y26350D01*
X38267Y26050D01*
X38133Y25800D01*
X37467Y25300D01*
X37167Y24950D01*
X36967Y24450D01*
X36900Y24000D01*
X38300D01*
G01X39467Y24450D02*
X39667Y24200D01*
X39900Y24050D01*
X40200Y24000D01*
X40500Y24100D01*
X40733Y24300D01*
X40900Y24650D01*
X40933Y25050D01*
X40867Y25450D01*
X40700Y25700D01*
X40467Y25900D01*
X40233Y25950D01*
X40000Y25900D01*
X39700Y25700D01*
X39800Y27000D01*
X40700D01*
G01X41000Y58000D02*
X40733Y58050D01*
X40500Y58250D01*
X40300Y58550D01*
X40167Y58900D01*
X40100Y59300D01*
Y59700D01*
X40167Y60100D01*
X40300Y60450D01*
X40500Y60750D01*
X40733Y60950D01*
X41000Y61000D01*
X41267Y60950D01*
X41500Y60750D01*
X41700Y60450D01*
X41833Y60100D01*
X41900Y59700D01*
Y59300D01*
X41833Y58900D01*
X41700Y58550D01*
X41500Y58250D01*
X41267Y58050D01*
X41000Y58000D01*
G01X41267Y58800D02*
X41667Y58000D01*
G01X43600D02*
X43833Y58050D01*
X44100Y58200D01*
X44267Y58450D01*
X44333Y58800D01*
X44267Y59150D01*
X44067Y59450D01*
X43767Y59600D01*
X43433D01*
X43233Y59700D01*
X43067Y59950D01*
X43000Y60300D01*
X43100Y60650D01*
X43333Y60900D01*
X43600Y61000D01*
X43867Y60900D01*
X44100Y60650D01*
X44200Y60300D01*
X44133Y59950D01*
X43967Y59700D01*
X43767Y59600D01*
X43433D01*
X43133Y59450D01*
X42933Y59150D01*
X42867Y58800D01*
X42933Y58450D01*
X43100Y58200D01*
X43367Y58050D01*
X43600Y58000D01*
G01X49000Y41000D02*
X48733Y41050D01*
X48500Y41250D01*
X48300Y41550D01*
X48167Y41900D01*
X48100Y42300D01*
Y42700D01*
X48167Y43100D01*
X48300Y43450D01*
X48500Y43750D01*
X48733Y43950D01*
X49000Y44000D01*
X49267Y43950D01*
X49500Y43750D01*
X49700Y43450D01*
X49833Y43100D01*
X49900Y42700D01*
Y42300D01*
X49833Y41900D01*
X49700Y41550D01*
X49500Y41250D01*
X49267Y41050D01*
X49000Y41000D01*
G01X49267Y41800D02*
X49667Y41000D01*
G01X51033Y41350D02*
X51267Y41100D01*
X51533Y41000D01*
X51800Y41100D01*
X52033Y41400D01*
X52200Y41850D01*
X52267Y42300D01*
Y42850D01*
X52200Y43300D01*
X52033Y43700D01*
X51833Y43900D01*
X51600Y44000D01*
X51333Y43900D01*
X51133Y43700D01*
X51000Y43400D01*
X50933Y43000D01*
X51000Y42650D01*
X51167Y42300D01*
X51367Y42100D01*
X51600Y42050D01*
X51867Y42150D01*
X52067Y42400D01*
X52267Y42850D01*
G01X26333Y47000D02*
Y50000D01*
X27167D01*
X27433Y49850D01*
X27600Y49650D01*
X27667Y49250D01*
X27600Y48850D01*
X27400Y48600D01*
X27167Y48450D01*
X26333D01*
G01X27167D02*
X27667Y47000D01*
G01X29600D02*
Y50000D01*
X29200Y49400D01*
G01Y47000D02*
X30000D01*
G01X32200Y50000D02*
X31933Y49900D01*
X31733Y49650D01*
X31600Y49350D01*
X31500Y48950D01*
X31467Y48500D01*
X31500Y48050D01*
X31600Y47650D01*
X31733Y47350D01*
X31933Y47100D01*
X32200Y47000D01*
X32467Y47100D01*
X32667Y47350D01*
X32800Y47650D01*
X32900Y48050D01*
X32933Y48500D01*
X32900Y48950D01*
X32800Y49350D01*
X32667Y49650D01*
X32467Y49900D01*
X32200Y50000D01*
G01X27000Y89000D02*
X26733Y89050D01*
X26500Y89250D01*
X26300Y89550D01*
X26167Y89900D01*
X26100Y90300D01*
Y90700D01*
X26167Y91100D01*
X26300Y91450D01*
X26500Y91750D01*
X26733Y91950D01*
X27000Y92000D01*
X27267Y91950D01*
X27500Y91750D01*
X27700Y91450D01*
X27833Y91100D01*
X27900Y90700D01*
Y90300D01*
X27833Y89900D01*
X27700Y89550D01*
X27500Y89250D01*
X27267Y89050D01*
X27000Y89000D01*
G01X27267Y89800D02*
X27667Y89000D01*
G01X28867Y89450D02*
X29067Y89200D01*
X29300Y89050D01*
X29600Y89000D01*
X29900Y89100D01*
X30133Y89300D01*
X30300Y89650D01*
X30333Y90050D01*
X30267Y90450D01*
X30100Y90700D01*
X29867Y90900D01*
X29633Y90950D01*
X29400Y90900D01*
X29100Y90700D01*
X29200Y92000D01*
X30100D01*
G01X35333Y82000D02*
Y85000D01*
X36167D01*
X36433Y84850D01*
X36600Y84650D01*
X36667Y84250D01*
X36600Y83850D01*
X36400Y83600D01*
X36167Y83450D01*
X35333D01*
G01X36167D02*
X36667Y82000D01*
G01X37867Y82450D02*
X38067Y82200D01*
X38300Y82050D01*
X38600Y82000D01*
X38900Y82100D01*
X39133Y82300D01*
X39300Y82650D01*
X39333Y83050D01*
X39267Y83450D01*
X39100Y83700D01*
X38867Y83900D01*
X38633Y83950D01*
X38400Y83900D01*
X38100Y83700D01*
X38200Y85000D01*
X39100D01*
G01X25333Y69000D02*
Y72000D01*
X26167D01*
X26433Y71850D01*
X26600Y71650D01*
X26667Y71250D01*
X26600Y70850D01*
X26400Y70600D01*
X26167Y70450D01*
X25333D01*
G01X26167D02*
X26667Y69000D01*
G01X28600D02*
X28833Y69050D01*
X29100Y69200D01*
X29267Y69450D01*
X29333Y69800D01*
X29267Y70150D01*
X29067Y70450D01*
X28767Y70600D01*
X28433D01*
X28233Y70700D01*
X28067Y70950D01*
X28000Y71300D01*
X28100Y71650D01*
X28333Y71900D01*
X28600Y72000D01*
X28867Y71900D01*
X29100Y71650D01*
X29200Y71300D01*
X29133Y70950D01*
X28967Y70700D01*
X28767Y70600D01*
X28433D01*
X28133Y70450D01*
X27933Y70150D01*
X27867Y69800D01*
X27933Y69450D01*
X28100Y69200D01*
X28367Y69050D01*
X28600Y69000D01*
G01X36267Y117000D02*
Y120000D01*
X36933D01*
X37200Y119850D01*
X37400Y119650D01*
X37567Y119350D01*
X37700Y119000D01*
X37733Y118500D01*
X37700Y118000D01*
X37567Y117650D01*
X37400Y117350D01*
X37200Y117150D01*
X36933Y117000D01*
X36267D01*
G01X38967Y118250D02*
X39200Y118600D01*
X39400Y118800D01*
X39667Y118900D01*
X39900Y118800D01*
X40067Y118600D01*
X40200Y118300D01*
X40233Y117950D01*
X40200Y117650D01*
X40067Y117350D01*
X39867Y117100D01*
X39633Y117000D01*
X39367Y117100D01*
X39133Y117400D01*
X39000Y117850D01*
X38967Y118350D01*
X39033Y119000D01*
X39133Y119350D01*
X39300Y119700D01*
X39533Y119950D01*
X39767Y120000D01*
X40000Y119900D01*
X40167Y119650D01*
G01X48000Y131000D02*
X47733Y131050D01*
X47500Y131250D01*
X47300Y131550D01*
X47167Y131900D01*
X47100Y132300D01*
Y132700D01*
X47167Y133100D01*
X47300Y133450D01*
X47500Y133750D01*
X47733Y133950D01*
X48000Y134000D01*
X48267Y133950D01*
X48500Y133750D01*
X48700Y133450D01*
X48833Y133100D01*
X48900Y132700D01*
Y132300D01*
X48833Y131900D01*
X48700Y131550D01*
X48500Y131250D01*
X48267Y131050D01*
X48000Y131000D01*
G01X48267Y131800D02*
X48667Y131000D01*
G01X50600D02*
Y134000D01*
X50200Y133400D01*
G01Y131000D02*
X51000D01*
G01X35333Y148000D02*
Y151000D01*
X36167D01*
X36433Y150850D01*
X36600Y150650D01*
X36667Y150250D01*
X36600Y149850D01*
X36400Y149600D01*
X36167Y149450D01*
X35333D01*
G01X36167D02*
X36667Y148000D01*
G01X38600D02*
Y151000D01*
X38200Y150400D01*
G01Y148000D02*
X39000D01*
G01X38333Y125600D02*
X38500Y125300D01*
X38700Y125100D01*
X38933Y125000D01*
X39200Y125100D01*
X39400Y125300D01*
X39600Y125600D01*
X39667Y126000D01*
Y128000D01*
G01X40867Y125600D02*
X41067Y125250D01*
X41333Y125050D01*
X41633Y125000D01*
X41900Y125050D01*
X42167Y125300D01*
X42333Y125600D01*
X42367Y125900D01*
X42300Y126250D01*
X42067Y126500D01*
X41833Y126600D01*
X41533D01*
G01X41833D02*
X42033Y126750D01*
X42200Y127000D01*
X42267Y127300D01*
X42200Y127600D01*
X42033Y127850D01*
X41733Y128000D01*
X41433Y127950D01*
X41133Y127750D01*
G01X80333Y23000D02*
Y26000D01*
X81167D01*
X81433Y25850D01*
X81600Y25650D01*
X81667Y25250D01*
X81600Y24850D01*
X81400Y24600D01*
X81167Y24450D01*
X80333D01*
G01X81167D02*
X81667Y23000D01*
G01X82967Y25500D02*
X83167Y25800D01*
X83400Y25950D01*
X83667Y26000D01*
X84000Y25900D01*
X84233Y25650D01*
X84300Y25350D01*
X84267Y25050D01*
X84133Y24800D01*
X83467Y24300D01*
X83167Y23950D01*
X82967Y23450D01*
X82900Y23000D01*
X84300D01*
G01X86200D02*
Y26000D01*
X85800Y25400D01*
G01Y23000D02*
X86600D01*
G01X56333Y13000D02*
Y16000D01*
X57167D01*
X57433Y15850D01*
X57600Y15650D01*
X57667Y15250D01*
X57600Y14850D01*
X57400Y14600D01*
X57167Y14450D01*
X56333D01*
G01X57167D02*
X57667Y13000D01*
G01X58967Y15500D02*
X59167Y15800D01*
X59400Y15950D01*
X59667Y16000D01*
X60000Y15900D01*
X60233Y15650D01*
X60300Y15350D01*
X60267Y15050D01*
X60133Y14800D01*
X59467Y14300D01*
X59167Y13950D01*
X58967Y13450D01*
X58900Y13000D01*
X60300D01*
G01X61467Y13600D02*
X61667Y13250D01*
X61933Y13050D01*
X62233Y13000D01*
X62500Y13050D01*
X62767Y13300D01*
X62933Y13600D01*
X62967Y13900D01*
X62900Y14250D01*
X62667Y14500D01*
X62433Y14600D01*
X62133D01*
G01X62433D02*
X62633Y14750D01*
X62800Y15000D01*
X62867Y15300D01*
X62800Y15600D01*
X62633Y15850D01*
X62333Y16000D01*
X62033Y15950D01*
X61733Y15750D01*
G01X55333Y24000D02*
Y27000D01*
X56167D01*
X56433Y26850D01*
X56600Y26650D01*
X56667Y26250D01*
X56600Y25850D01*
X56400Y25600D01*
X56167Y25450D01*
X55333D01*
G01X56167D02*
X56667Y24000D01*
G01X57967Y26500D02*
X58167Y26800D01*
X58400Y26950D01*
X58667Y27000D01*
X59000Y26900D01*
X59233Y26650D01*
X59300Y26350D01*
X59267Y26050D01*
X59133Y25800D01*
X58467Y25300D01*
X58167Y24950D01*
X57967Y24450D01*
X57900Y24000D01*
X59300D01*
G01X61600D02*
Y27000D01*
X60367Y24850D01*
X62033D01*
G01X79000Y41000D02*
X78733Y41050D01*
X78500Y41250D01*
X78300Y41550D01*
X78167Y41900D01*
X78100Y42300D01*
Y42700D01*
X78167Y43100D01*
X78300Y43450D01*
X78500Y43750D01*
X78733Y43950D01*
X79000Y44000D01*
X79267Y43950D01*
X79500Y43750D01*
X79700Y43450D01*
X79833Y43100D01*
X79900Y42700D01*
Y42300D01*
X79833Y41900D01*
X79700Y41550D01*
X79500Y41250D01*
X79267Y41050D01*
X79000Y41000D01*
G01X79267Y41800D02*
X79667Y41000D01*
G01X81600D02*
Y44000D01*
X81200Y43400D01*
G01Y41000D02*
X82000D01*
G01X84200D02*
Y44000D01*
X83800Y43400D01*
G01Y41000D02*
X84600D01*
G01X62333Y67000D02*
Y70000D01*
X63167D01*
X63433Y69850D01*
X63600Y69650D01*
X63667Y69250D01*
X63600Y68850D01*
X63400Y68600D01*
X63167Y68450D01*
X62333D01*
G01X63167D02*
X63667Y67000D01*
G01X64967Y69500D02*
X65167Y69800D01*
X65400Y69950D01*
X65667Y70000D01*
X66000Y69900D01*
X66233Y69650D01*
X66300Y69350D01*
X66267Y69050D01*
X66133Y68800D01*
X65467Y68300D01*
X65167Y67950D01*
X64967Y67450D01*
X64900Y67000D01*
X66300D01*
G01X59333Y89000D02*
Y92000D01*
X60167D01*
X60433Y91850D01*
X60600Y91650D01*
X60667Y91250D01*
X60600Y90850D01*
X60400Y90600D01*
X60167Y90450D01*
X59333D01*
G01X60167D02*
X60667Y89000D01*
G01X61967Y90250D02*
X62200Y90600D01*
X62400Y90800D01*
X62667Y90900D01*
X62900Y90800D01*
X63067Y90600D01*
X63200Y90300D01*
X63233Y89950D01*
X63200Y89650D01*
X63067Y89350D01*
X62867Y89100D01*
X62633Y89000D01*
X62367Y89100D01*
X62133Y89400D01*
X62000Y89850D01*
X61967Y90350D01*
X62033Y91000D01*
X62133Y91350D01*
X62300Y91700D01*
X62533Y91950D01*
X62767Y92000D01*
X63000Y91900D01*
X63167Y91650D01*
G01X60000Y111000D02*
X59733Y111050D01*
X59500Y111250D01*
X59300Y111550D01*
X59167Y111900D01*
X59100Y112300D01*
Y112700D01*
X59167Y113100D01*
X59300Y113450D01*
X59500Y113750D01*
X59733Y113950D01*
X60000Y114000D01*
X60267Y113950D01*
X60500Y113750D01*
X60700Y113450D01*
X60833Y113100D01*
X60900Y112700D01*
Y112300D01*
X60833Y111900D01*
X60700Y111550D01*
X60500Y111250D01*
X60267Y111050D01*
X60000Y111000D01*
G01X60267Y111800D02*
X60667Y111000D01*
G01X61867Y111600D02*
X62067Y111250D01*
X62333Y111050D01*
X62633Y111000D01*
X62900Y111050D01*
X63167Y111300D01*
X63333Y111600D01*
X63367Y111900D01*
X63300Y112250D01*
X63067Y112500D01*
X62833Y112600D01*
X62533D01*
G01X62833D02*
X63033Y112750D01*
X63200Y113000D01*
X63267Y113300D01*
X63200Y113600D01*
X63033Y113850D01*
X62733Y114000D01*
X62433Y113950D01*
X62133Y113750D01*
G01X80000Y108000D02*
X79733Y108050D01*
X79500Y108250D01*
X79300Y108550D01*
X79167Y108900D01*
X79100Y109300D01*
Y109700D01*
X79167Y110100D01*
X79300Y110450D01*
X79500Y110750D01*
X79733Y110950D01*
X80000Y111000D01*
X80267Y110950D01*
X80500Y110750D01*
X80700Y110450D01*
X80833Y110100D01*
X80900Y109700D01*
Y109300D01*
X80833Y108900D01*
X80700Y108550D01*
X80500Y108250D01*
X80267Y108050D01*
X80000Y108000D01*
G01X80267Y108800D02*
X80667Y108000D01*
G01X83000D02*
Y111000D01*
X81767Y108850D01*
X83433D01*
G01X65000Y133000D02*
X64733Y133050D01*
X64500Y133250D01*
X64300Y133550D01*
X64167Y133900D01*
X64100Y134300D01*
Y134700D01*
X64167Y135100D01*
X64300Y135450D01*
X64500Y135750D01*
X64733Y135950D01*
X65000Y136000D01*
X65267Y135950D01*
X65500Y135750D01*
X65700Y135450D01*
X65833Y135100D01*
X65900Y134700D01*
Y134300D01*
X65833Y133900D01*
X65700Y133550D01*
X65500Y133250D01*
X65267Y133050D01*
X65000Y133000D01*
G01X65267Y133800D02*
X65667Y133000D01*
G01X66967Y135500D02*
X67167Y135800D01*
X67400Y135950D01*
X67667Y136000D01*
X68000Y135900D01*
X68233Y135650D01*
X68300Y135350D01*
X68267Y135050D01*
X68133Y134800D01*
X67467Y134300D01*
X67167Y133950D01*
X66967Y133450D01*
X66900Y133000D01*
X68300D01*
G01X60333Y148000D02*
Y151000D01*
X61167D01*
X61433Y150850D01*
X61600Y150650D01*
X61667Y150250D01*
X61600Y149850D01*
X61400Y149600D01*
X61167Y149450D01*
X60333D01*
G01X61167D02*
X61667Y148000D01*
G01X62867Y148600D02*
X63067Y148250D01*
X63333Y148050D01*
X63633Y148000D01*
X63900Y148050D01*
X64167Y148300D01*
X64333Y148600D01*
X64367Y148900D01*
X64300Y149250D01*
X64067Y149500D01*
X63833Y149600D01*
X63533D01*
G01X63833D02*
X64033Y149750D01*
X64200Y150000D01*
X64267Y150300D01*
X64200Y150600D01*
X64033Y150850D01*
X63733Y151000D01*
X63433Y150950D01*
X63133Y150750D01*
G01X80333Y124000D02*
Y127000D01*
X81167D01*
X81433Y126850D01*
X81600Y126650D01*
X81667Y126250D01*
X81600Y125850D01*
X81400Y125600D01*
X81167Y125450D01*
X80333D01*
G01X81167D02*
X81667Y124000D01*
G01X84000D02*
Y127000D01*
X82767Y124850D01*
X84433D01*
G01X84333Y5000D02*
Y8000D01*
X85167D01*
X85433Y7850D01*
X85600Y7650D01*
X85667Y7250D01*
X85600Y6850D01*
X85400Y6600D01*
X85167Y6450D01*
X84333D01*
G01X85167D02*
X85667Y5000D01*
G01X86967Y7500D02*
X87167Y7800D01*
X87400Y7950D01*
X87667Y8000D01*
X88000Y7900D01*
X88233Y7650D01*
X88300Y7350D01*
X88267Y7050D01*
X88133Y6800D01*
X87467Y6300D01*
X87167Y5950D01*
X86967Y5450D01*
X86900Y5000D01*
X88300D01*
G01X89567Y7500D02*
X89767Y7800D01*
X90000Y7950D01*
X90267Y8000D01*
X90600Y7900D01*
X90833Y7650D01*
X90900Y7350D01*
X90867Y7050D01*
X90733Y6800D01*
X90067Y6300D01*
X89767Y5950D01*
X89567Y5450D01*
X89500Y5000D01*
X90900D01*
G01X103333Y25600D02*
X103500Y25300D01*
X103700Y25100D01*
X103933Y25000D01*
X104200Y25100D01*
X104400Y25300D01*
X104600Y25600D01*
X104667Y26000D01*
Y28000D01*
G01X107000Y25000D02*
Y28000D01*
X105767Y25850D01*
X107433D01*
G01X97000Y41000D02*
X96733Y41050D01*
X96500Y41250D01*
X96300Y41550D01*
X96167Y41900D01*
X96100Y42300D01*
Y42700D01*
X96167Y43100D01*
X96300Y43450D01*
X96500Y43750D01*
X96733Y43950D01*
X97000Y44000D01*
X97267Y43950D01*
X97500Y43750D01*
X97700Y43450D01*
X97833Y43100D01*
X97900Y42700D01*
Y42300D01*
X97833Y41900D01*
X97700Y41550D01*
X97500Y41250D01*
X97267Y41050D01*
X97000Y41000D01*
G01X97267Y41800D02*
X97667Y41000D01*
G01X99600D02*
Y44000D01*
X99200Y43400D01*
G01Y41000D02*
X100000D01*
G01X101567Y43500D02*
X101767Y43800D01*
X102000Y43950D01*
X102267Y44000D01*
X102600Y43900D01*
X102833Y43650D01*
X102900Y43350D01*
X102867Y43050D01*
X102733Y42800D01*
X102067Y42300D01*
X101767Y41950D01*
X101567Y41450D01*
X101500Y41000D01*
X102900D01*
G01X103000Y81000D02*
X102733Y81050D01*
X102500Y81250D01*
X102300Y81550D01*
X102167Y81900D01*
X102100Y82300D01*
Y82700D01*
X102167Y83100D01*
X102300Y83450D01*
X102500Y83750D01*
X102733Y83950D01*
X103000Y84000D01*
X103267Y83950D01*
X103500Y83750D01*
X103700Y83450D01*
X103833Y83100D01*
X103900Y82700D01*
Y82300D01*
X103833Y81900D01*
X103700Y81550D01*
X103500Y81250D01*
X103267Y81050D01*
X103000Y81000D01*
G01X103267Y81800D02*
X103667Y81000D01*
G01X105600D02*
Y84000D01*
X105200Y83400D01*
G01Y81000D02*
X106000D01*
G01X108200Y84000D02*
X107933Y83900D01*
X107733Y83650D01*
X107600Y83350D01*
X107500Y82950D01*
X107467Y82500D01*
X107500Y82050D01*
X107600Y81650D01*
X107733Y81350D01*
X107933Y81100D01*
X108200Y81000D01*
X108467Y81100D01*
X108667Y81350D01*
X108800Y81650D01*
X108900Y82050D01*
X108933Y82500D01*
X108900Y82950D01*
X108800Y83350D01*
X108667Y83650D01*
X108467Y83900D01*
X108200Y84000D01*
G01X105333Y89000D02*
Y92000D01*
X106167D01*
X106433Y91850D01*
X106600Y91650D01*
X106667Y91250D01*
X106600Y90850D01*
X106400Y90600D01*
X106167Y90450D01*
X105333D01*
G01X106167D02*
X106667Y89000D01*
G01X108600D02*
Y92000D01*
X108200Y91400D01*
G01Y89000D02*
X109000D01*
G01X110467Y89600D02*
X110667Y89250D01*
X110933Y89050D01*
X111233Y89000D01*
X111500Y89050D01*
X111767Y89300D01*
X111933Y89600D01*
X111967Y89900D01*
X111900Y90250D01*
X111667Y90500D01*
X111433Y90600D01*
X111133D01*
G01X111433D02*
X111633Y90750D01*
X111800Y91000D01*
X111867Y91300D01*
X111800Y91600D01*
X111633Y91850D01*
X111333Y92000D01*
X111033Y91950D01*
X110733Y91750D01*
G01X84267Y98000D02*
Y101000D01*
X84933D01*
X85200Y100850D01*
X85400Y100650D01*
X85567Y100350D01*
X85700Y100000D01*
X85733Y99500D01*
X85700Y99000D01*
X85567Y98650D01*
X85400Y98350D01*
X85200Y98150D01*
X84933Y98000D01*
X84267D01*
G01X87533D02*
X87600Y98650D01*
X87700Y99200D01*
X87833Y99700D01*
X88000Y100250D01*
X88267Y101000D01*
X86933D01*
G01X99333Y103000D02*
Y106000D01*
X100167D01*
X100433Y105850D01*
X100600Y105650D01*
X100667Y105250D01*
X100600Y104850D01*
X100400Y104600D01*
X100167Y104450D01*
X99333D01*
G01X100167D02*
X100667Y103000D01*
G01X101967Y105500D02*
X102167Y105800D01*
X102400Y105950D01*
X102667Y106000D01*
X103000Y105900D01*
X103233Y105650D01*
X103300Y105350D01*
X103267Y105050D01*
X103133Y104800D01*
X102467Y104300D01*
X102167Y103950D01*
X101967Y103450D01*
X101900Y103000D01*
X103300D01*
G01X105200Y106000D02*
X104933Y105900D01*
X104733Y105650D01*
X104600Y105350D01*
X104500Y104950D01*
X104467Y104500D01*
X104500Y104050D01*
X104600Y103650D01*
X104733Y103350D01*
X104933Y103100D01*
X105200Y103000D01*
X105467Y103100D01*
X105667Y103350D01*
X105800Y103650D01*
X105900Y104050D01*
X105933Y104500D01*
X105900Y104950D01*
X105800Y105350D01*
X105667Y105650D01*
X105467Y105900D01*
X105200Y106000D01*
G01X108333Y123000D02*
Y126000D01*
X109167D01*
X109433Y125850D01*
X109600Y125650D01*
X109667Y125250D01*
X109600Y124850D01*
X109400Y124600D01*
X109167Y124450D01*
X108333D01*
G01X109167D02*
X109667Y123000D01*
G01X111600D02*
Y126000D01*
X111200Y125400D01*
G01Y123000D02*
X112000D01*
G01X113633Y123350D02*
X113867Y123100D01*
X114133Y123000D01*
X114400Y123100D01*
X114633Y123400D01*
X114800Y123850D01*
X114867Y124300D01*
Y124850D01*
X114800Y125300D01*
X114633Y125700D01*
X114433Y125900D01*
X114200Y126000D01*
X113933Y125900D01*
X113733Y125700D01*
X113600Y125400D01*
X113533Y125000D01*
X113600Y124650D01*
X113767Y124300D01*
X113967Y124100D01*
X114200Y124050D01*
X114467Y124150D01*
X114667Y124400D01*
X114867Y124850D01*
G01X96333Y149000D02*
Y152000D01*
X97167D01*
X97433Y151850D01*
X97600Y151650D01*
X97667Y151250D01*
X97600Y150850D01*
X97400Y150600D01*
X97167Y150450D01*
X96333D01*
G01X97167D02*
X97667Y149000D01*
G01X99600D02*
Y152000D01*
X99200Y151400D01*
G01Y149000D02*
X100000D01*
G01X102200D02*
X102433Y149050D01*
X102700Y149200D01*
X102867Y149450D01*
X102933Y149800D01*
X102867Y150150D01*
X102667Y150450D01*
X102367Y150600D01*
X102033D01*
X101833Y150700D01*
X101667Y150950D01*
X101600Y151300D01*
X101700Y151650D01*
X101933Y151900D01*
X102200Y152000D01*
X102467Y151900D01*
X102700Y151650D01*
X102800Y151300D01*
X102733Y150950D01*
X102567Y150700D01*
X102367Y150600D01*
X102033D01*
X101733Y150450D01*
X101533Y150150D01*
X101467Y149800D01*
X101533Y149450D01*
X101700Y149200D01*
X101967Y149050D01*
X102200Y149000D01*
G01X113733Y21750D02*
X113533Y21900D01*
X113300Y22000D01*
X113033D01*
X112733Y21850D01*
X112500Y21600D01*
X112333Y21300D01*
X112200Y20800D01*
X112167Y20350D01*
X112233Y19900D01*
X112333Y19600D01*
X112533Y19300D01*
X112767Y19100D01*
X113000Y19000D01*
X113233D01*
X113467Y19100D01*
X113667Y19250D01*
X113833Y19450D01*
G01X114933Y19000D02*
Y22000D01*
X115767D01*
X116033Y21850D01*
X116200Y21650D01*
X116267Y21250D01*
X116200Y20850D01*
X116000Y20600D01*
X115767Y20450D01*
X114933D01*
G01X115767D02*
X116267Y19000D01*
G01X117800Y22000D02*
X118600D01*
G01X118200D02*
Y19000D01*
G01X117800D02*
X118600D01*
G01X120100Y19400D02*
X120367Y19150D01*
X120667Y19000D01*
X120933D01*
X121200Y19150D01*
X121400Y19400D01*
X121500Y19750D01*
X121433Y20100D01*
X121267Y20400D01*
X120967Y20600D01*
X120567Y20700D01*
X120333Y20900D01*
X120233Y21250D01*
X120300Y21600D01*
X120467Y21850D01*
X120700Y22000D01*
X120933D01*
X121167Y21900D01*
X121367Y21650D01*
G01X123400Y22000D02*
Y19000D01*
G01X122633Y22000D02*
X124167D01*
G01X126667Y19000D02*
X125333D01*
Y22000D01*
X126667D01*
G01X126133Y20550D02*
X125333D01*
G01X127767Y19000D02*
X128600Y22000D01*
X129433Y19000D01*
G01X129133Y20050D02*
X128067D01*
G01X133067Y19000D02*
Y22000D01*
X133733D01*
X134000Y21850D01*
X134200Y21650D01*
X134367Y21350D01*
X134500Y21000D01*
X134533Y20500D01*
X134500Y20000D01*
X134367Y19650D01*
X134200Y19350D01*
X134000Y19150D01*
X133733Y19000D01*
X133067D01*
G01X137067D02*
X135733D01*
Y22000D01*
X137067D01*
G01X136533Y20550D02*
X135733D01*
G01X138233Y19000D02*
Y22000D01*
X139767Y19000D01*
Y22000D01*
G01X141200D02*
X142000D01*
G01X141600D02*
Y19000D01*
G01X141200D02*
X142000D01*
G01X143500Y19400D02*
X143767Y19150D01*
X144067Y19000D01*
X144333D01*
X144600Y19150D01*
X144800Y19400D01*
X144900Y19750D01*
X144833Y20100D01*
X144667Y20400D01*
X144367Y20600D01*
X143967Y20700D01*
X143733Y20900D01*
X143633Y21250D01*
X143700Y21600D01*
X143867Y21850D01*
X144100Y22000D01*
X144333D01*
X144567Y21900D01*
X144767Y21650D01*
G01X116400Y14000D02*
Y17000D01*
X115167Y14850D01*
X116833D01*
G01X117867Y14600D02*
X118067Y14250D01*
X118333Y14050D01*
X118633Y14000D01*
X118900Y14050D01*
X119167Y14300D01*
X119333Y14600D01*
X119367Y14900D01*
X119300Y15250D01*
X119067Y15500D01*
X118833Y15600D01*
X118533D01*
G01X118833D02*
X119033Y15750D01*
X119200Y16000D01*
X119267Y16300D01*
X119200Y16600D01*
X119033Y16850D01*
X118733Y17000D01*
X118433Y16950D01*
X118133Y16750D01*
G01X121600Y14000D02*
Y17000D01*
X120367Y14850D01*
X122033D01*
G01X124467Y14000D02*
X123133D01*
Y17000D01*
X124467D01*
G01X123933Y15550D02*
X123133D01*
G01X113733Y11750D02*
X113533Y11900D01*
X113300Y12000D01*
X113033D01*
X112733Y11850D01*
X112500Y11600D01*
X112333Y11300D01*
X112200Y10800D01*
X112167Y10350D01*
X112233Y9900D01*
X112333Y9600D01*
X112533Y9300D01*
X112767Y9100D01*
X113000Y9000D01*
X113233D01*
X113467Y9100D01*
X113667Y9250D01*
X113833Y9450D01*
G01X116267Y9000D02*
X114933D01*
Y12000D01*
X116267D01*
G01X115733Y10550D02*
X114933D01*
G01X117567Y9000D02*
Y12000D01*
X118833D01*
G01X118367Y10550D02*
X117567D01*
G01X122733Y9000D02*
Y12000D01*
X123533D01*
X123800Y11850D01*
X124000Y11500D01*
X124067Y11100D01*
X124000Y10700D01*
X123833Y10400D01*
X123533Y10250D01*
X122733D01*
G01X125533Y9000D02*
Y11000D01*
G01Y10600D02*
X125700Y10800D01*
X125867Y10950D01*
X126100Y11000D01*
X126267Y10950D01*
X126467Y10800D01*
G01X127967Y11500D02*
X128167Y11800D01*
X128400Y11950D01*
X128667Y12000D01*
X129000Y11900D01*
X129233Y11650D01*
X129300Y11350D01*
X129267Y11050D01*
X129133Y10800D01*
X128467Y10300D01*
X128167Y9950D01*
X127967Y9450D01*
X127900Y9000D01*
X129300D01*
G01X131200Y12000D02*
X130933Y11900D01*
X130733Y11650D01*
X130600Y11350D01*
X130500Y10950D01*
X130467Y10500D01*
X130500Y10050D01*
X130600Y9650D01*
X130733Y9350D01*
X130933Y9100D01*
X131200Y9000D01*
X131467Y9100D01*
X131667Y9350D01*
X131800Y9650D01*
X131900Y10050D01*
X131933Y10500D01*
X131900Y10950D01*
X131800Y11350D01*
X131667Y11650D01*
X131467Y11900D01*
X131200Y12000D01*
G01X133167Y11500D02*
X133367Y11800D01*
X133600Y11950D01*
X133867Y12000D01*
X134200Y11900D01*
X134433Y11650D01*
X134500Y11350D01*
X134467Y11050D01*
X134333Y10800D01*
X133667Y10300D01*
X133367Y9950D01*
X133167Y9450D01*
X133100Y9000D01*
X134500D01*
G01X135667Y9450D02*
X135867Y9200D01*
X136100Y9050D01*
X136400Y9000D01*
X136700Y9100D01*
X136933Y9300D01*
X137100Y9650D01*
X137133Y10050D01*
X137067Y10450D01*
X136900Y10700D01*
X136667Y10900D01*
X136433Y10950D01*
X136200Y10900D01*
X135900Y10700D01*
X136000Y12000D01*
X136900D01*
G01X138567Y10000D02*
X139433D01*
G01X140967Y11500D02*
X141167Y11800D01*
X141400Y11950D01*
X141667Y12000D01*
X142000Y11900D01*
X142233Y11650D01*
X142300Y11350D01*
X142267Y11050D01*
X142133Y10800D01*
X141467Y10300D01*
X141167Y9950D01*
X140967Y9450D01*
X140900Y9000D01*
X142300D01*
G01X144200Y12000D02*
X143933Y11900D01*
X143733Y11650D01*
X143600Y11350D01*
X143500Y10950D01*
X143467Y10500D01*
X143500Y10050D01*
X143600Y9650D01*
X143733Y9350D01*
X143933Y9100D01*
X144200Y9000D01*
X144467Y9100D01*
X144667Y9350D01*
X144800Y9650D01*
X144900Y10050D01*
X144933Y10500D01*
X144900Y10950D01*
X144800Y11350D01*
X144667Y11650D01*
X144467Y11900D01*
X144200Y12000D01*
G01X146167Y11500D02*
X146367Y11800D01*
X146600Y11950D01*
X146867Y12000D01*
X147200Y11900D01*
X147433Y11650D01*
X147500Y11350D01*
X147467Y11050D01*
X147333Y10800D01*
X146667Y10300D01*
X146367Y9950D01*
X146167Y9450D01*
X146100Y9000D01*
X147500D01*
G01X148767Y10250D02*
X149000Y10600D01*
X149200Y10800D01*
X149467Y10900D01*
X149700Y10800D01*
X149867Y10600D01*
X150000Y10300D01*
X150033Y9950D01*
X150000Y9650D01*
X149867Y9350D01*
X149667Y9100D01*
X149433Y9000D01*
X149167Y9100D01*
X148933Y9400D01*
X148800Y9850D01*
X148767Y10350D01*
X148833Y11000D01*
X148933Y11350D01*
X149100Y11700D01*
X149333Y11950D01*
X149567Y12000D01*
X149800Y11900D01*
X149967Y11650D01*
G01X138267Y35000D02*
Y38000D01*
X138933D01*
X139200Y37850D01*
X139400Y37650D01*
X139567Y37350D01*
X139700Y37000D01*
X139733Y36500D01*
X139700Y36000D01*
X139567Y35650D01*
X139400Y35350D01*
X139200Y35150D01*
X138933Y35000D01*
X138267D01*
G01X140867Y35450D02*
X141067Y35200D01*
X141300Y35050D01*
X141600Y35000D01*
X141900Y35100D01*
X142133Y35300D01*
X142300Y35650D01*
X142333Y36050D01*
X142267Y36450D01*
X142100Y36700D01*
X141867Y36900D01*
X141633Y36950D01*
X141400Y36900D01*
X141100Y36700D01*
X141200Y38000D01*
X142100D01*
G01X117333Y61000D02*
Y64000D01*
X118167D01*
X118433Y63850D01*
X118600Y63650D01*
X118667Y63250D01*
X118600Y62850D01*
X118400Y62600D01*
X118167Y62450D01*
X117333D01*
G01X118167D02*
X118667Y61000D01*
G01X120600D02*
Y64000D01*
X120200Y63400D01*
G01Y61000D02*
X121000D01*
G01X122467Y61450D02*
X122667Y61200D01*
X122900Y61050D01*
X123200Y61000D01*
X123500Y61100D01*
X123733Y61300D01*
X123900Y61650D01*
X123933Y62050D01*
X123867Y62450D01*
X123700Y62700D01*
X123467Y62900D01*
X123233Y62950D01*
X123000Y62900D01*
X122700Y62700D01*
X122800Y64000D01*
X123700D01*
G01X129333Y68600D02*
X129500Y68300D01*
X129700Y68100D01*
X129933Y68000D01*
X130200Y68100D01*
X130400Y68300D01*
X130600Y68600D01*
X130667Y69000D01*
Y71000D01*
G01X131967Y70500D02*
X132167Y70800D01*
X132400Y70950D01*
X132667Y71000D01*
X133000Y70900D01*
X133233Y70650D01*
X133300Y70350D01*
X133267Y70050D01*
X133133Y69800D01*
X132467Y69300D01*
X132167Y68950D01*
X131967Y68450D01*
X131900Y68000D01*
X133300D01*
G01X140333Y106000D02*
Y109000D01*
X141167D01*
X141433Y108850D01*
X141600Y108650D01*
X141667Y108250D01*
X141600Y107850D01*
X141400Y107600D01*
X141167Y107450D01*
X140333D01*
G01X141167D02*
X141667Y106000D01*
G01X143600D02*
Y109000D01*
X143200Y108400D01*
G01Y106000D02*
X144000D01*
G01X146600D02*
Y109000D01*
X145367Y106850D01*
X147033D01*
G01X131333Y119000D02*
Y122000D01*
X132167D01*
X132433Y121850D01*
X132600Y121650D01*
X132667Y121250D01*
X132600Y120850D01*
X132400Y120600D01*
X132167Y120450D01*
X131333D01*
G01X132167D02*
X132667Y119000D01*
G01X134600D02*
Y122000D01*
X134200Y121400D01*
G01Y119000D02*
X135000D01*
G01X136567Y120250D02*
X136800Y120600D01*
X137000Y120800D01*
X137267Y120900D01*
X137500Y120800D01*
X137667Y120600D01*
X137800Y120300D01*
X137833Y119950D01*
X137800Y119650D01*
X137667Y119350D01*
X137467Y119100D01*
X137233Y119000D01*
X136967Y119100D01*
X136733Y119400D01*
X136600Y119850D01*
X136567Y120350D01*
X136633Y121000D01*
X136733Y121350D01*
X136900Y121700D01*
X137133Y121950D01*
X137367Y122000D01*
X137600Y121900D01*
X137767Y121650D01*
G01X141333Y132000D02*
Y135000D01*
X142167D01*
X142433Y134850D01*
X142600Y134650D01*
X142667Y134250D01*
X142600Y133850D01*
X142400Y133600D01*
X142167Y133450D01*
X141333D01*
G01X142167D02*
X142667Y132000D01*
G01X144600D02*
Y135000D01*
X144200Y134400D01*
G01Y132000D02*
X145000D01*
G01X147133D02*
X147200Y132650D01*
X147300Y133200D01*
X147433Y133700D01*
X147600Y134250D01*
X147867Y135000D01*
X146533D01*
G54D13*
G01X107878Y142000D02*
Y133142D01*
G01X103350Y137472D02*
X112406D01*
G01X107878Y143378D02*
G03X101972Y137472I0J-5906D01*
G03X108075Y131567I5909J1D01*
G03X113783Y137472I-194J5899D01*
G03X107878Y143378I-5905J1D01*
G01X98035Y131961D02*
Y127630D01*
X117720D01*
Y128811D01*
G01X98035Y142984D02*
Y147315D01*
X117720D01*
Y146134D01*
G01Y138457D02*
Y136488D01*
M02*
